<svg id="svg" version="1.1" xmlns="http://www.w3.org/2000/svg" xmlns:xlink="http://www.w3.org/1999/xlink" width="400" height="300.41911148365466" viewBox="0, 0, 400,300.41911148365466"><g id="svgg"><path id="path0" d="M0.000 150.263 L 0.000 300.526 200.000 300.526 L 400.000 300.526 400.000 150.263 L 400.000 0.000 200.000 0.000 L 0.000 0.000 0.000 150.263 M317.137 13.200 C 317.596 13.435,318.272 14.111,318.640 14.702 L 319.309 15.778 319.309 147.708 L 319.309 279.639 318.627 280.736 C 317.222 282.996,328.930 282.796,198.416 282.788 C 66.784 282.781,79.524 283.009,78.232 280.640 C 77.393 279.103,77.377 16.343,78.215 14.810 C 78.752 13.828,79.436 13.329,80.824 12.906 C 82.378 12.433,316.208 12.723,317.137 13.200 M214.822 32.451 C 211.038 33.593,210.260 39.256,213.646 41.007 C 214.826 41.618,217.652 41.607,218.849 40.987 C 219.713 40.541,219.853 40.541,220.609 40.987 C 221.724 41.646,225.169 41.655,225.824 41.000 C 226.438 40.386,226.454 37.542,225.850 36.374 C 224.715 34.178,220.015 34.692,220.726 36.934 C 220.825 37.243,220.702 37.645,220.446 37.858 C 220.072 38.169,219.961 38.137,219.817 37.675 C 219.395 36.330,219.202 36.213,217.398 36.213 C 215.462 36.213,214.494 37.514,216.061 38.011 C 216.933 38.288,216.848 39.068,215.945 39.068 C 212.871 39.068,214.097 34.663,217.215 34.500 C 218.820 34.416,218.939 34.358,219.025 33.619 C 219.166 32.404,216.986 31.798,214.822 32.451 M153.451 32.932 C 153.100 33.847,153.250 40.733,153.629 41.112 C 154.697 42.180,155.726 41.412,155.965 39.369 C 156.123 38.018,156.124 38.017,157.325 38.017 L 158.527 38.017 158.623 39.363 C 158.774 41.477,160.181 42.281,161.195 40.834 L 161.642 40.195 162.454 40.834 C 163.520 41.672,167.062 41.761,167.854 40.969 C 168.699 40.124,168.346 36.880,167.296 35.830 C 165.747 34.281,162.339 34.910,162.693 36.679 C 162.853 37.480,162.220 38.768,161.666 38.768 C 161.509 38.768,161.382 37.524,161.382 35.973 C 161.382 32.923,161.176 32.457,159.825 32.457 C 158.969 32.457,158.818 32.720,158.612 34.560 C 158.459 35.927,156.156 35.661,156.024 34.261 C 155.863 32.573,153.965 31.593,153.451 32.932 M169.538 35.205 C 168.576 35.561,168.232 39.618,169.063 40.805 C 170.172 42.388,171.600 41.347,171.600 38.956 C 171.600 37.558,172.070 36.875,172.531 37.602 C 172.675 37.830,172.795 38.632,172.798 39.384 C 172.805 41.393,174.366 42.330,175.276 40.872 C 175.755 40.105,176.140 40.112,176.814 40.900 C 177.305 41.473,177.311 41.575,176.881 42.050 C 175.373 43.716,178.467 44.993,180.926 43.721 C 182.663 42.823,183.846 37.244,182.640 35.641 C 181.856 34.600,177.902 34.770,176.727 35.896 L 175.808 36.777 174.920 35.926 C 174.008 35.052,171.030 34.653,169.538 35.205 M184.428 35.108 C 182.671 35.447,183.020 41.170,184.814 41.426 C 185.816 41.569,186.326 40.755,186.326 39.011 C 186.326 37.981,186.445 37.566,186.742 37.566 C 187.208 37.566,187.518 38.464,187.524 39.835 C 187.529 40.925,187.999 41.473,188.930 41.473 C 189.810 41.473,190.233 40.650,190.233 38.938 C 190.233 37.919,190.349 37.566,190.684 37.566 C 190.980 37.566,191.134 37.862,191.134 38.430 C 191.134 41.059,192.112 42.083,193.656 41.071 C 194.275 40.666,194.444 40.660,194.931 41.028 C 195.867 41.737,199.710 41.624,200.237 40.871 L 200.658 40.270 201.202 40.871 C 202.418 42.215,203.754 41.438,203.761 39.384 C 203.764 38.632,203.884 37.830,204.028 37.602 C 204.489 36.875,204.959 37.558,204.959 38.956 C 204.959 40.651,205.384 41.473,206.262 41.473 C 207.349 41.473,207.663 40.890,207.663 38.872 C 207.663 35.204,206.987 34.778,201.734 35.136 C 201.530 35.150,201.275 35.533,201.166 35.988 C 200.850 37.310,200.742 37.340,200.040 36.298 C 198.622 34.193,195.332 34.519,195.041 36.794 C 194.839 38.380,194.250 38.491,193.854 37.019 C 193.433 35.456,192.836 35.005,191.321 35.106 C 189.605 35.221,189.450 35.221,187.075 35.106 C 185.917 35.050,184.726 35.051,184.428 35.108 M227.549 35.202 C 226.485 35.595,226.171 40.093,227.146 40.975 C 228.500 42.201,229.602 41.286,229.602 38.938 C 229.602 36.847,230.371 37.101,230.595 39.266 C 230.767 40.934,231.107 41.463,232.006 41.463 C 232.944 41.463,233.306 40.904,233.444 39.246 C 233.609 37.254,234.407 36.799,234.414 38.693 C 234.424 41.350,235.692 42.348,236.991 40.719 L 237.665 39.874 238.615 40.673 C 240.357 42.139,243.656 41.645,243.321 39.968 C 243.211 39.419,243.305 38.993,243.589 38.757 C 244.602 37.917,243.684 35.693,242.109 35.173 C 240.748 34.724,239.590 35.034,238.354 36.176 C 237.693 36.788,237.291 36.985,237.203 36.743 C 236.764 35.541,235.959 35.021,234.666 35.105 C 232.971 35.215,232.848 35.214,230.286 35.094 C 229.092 35.038,227.860 35.086,227.549 35.202 M179.966 38.136 C 180.084 38.965,179.459 39.480,178.898 39.014 C 178.481 38.668,178.383 37.795,178.723 37.455 C 179.140 37.038,179.867 37.436,179.966 38.136 M229.426 71.525 C 229.426 74.583,229.471 75.834,229.525 74.305 C 229.580 72.776,229.580 70.274,229.525 68.745 C 229.471 67.216,229.426 68.467,229.426 71.525 M270.298 71.675 C 270.298 74.816,270.343 76.060,270.397 74.440 C 270.451 72.820,270.451 70.250,270.397 68.730 C 270.342 67.209,270.298 68.535,270.298 71.675 M234.534 71.675 C 234.535 74.651,234.580 75.827,234.634 74.290 C 234.689 72.753,234.689 70.318,234.634 68.880 C 234.579 67.442,234.534 68.700,234.534 71.675 M135.011 78.963 C 138.937 79.010,145.361 79.010,149.286 78.963 C 153.212 78.915,150.000 78.877,142.149 78.877 C 134.298 78.877,131.086 78.915,135.011 78.963 M170.624 78.963 C 173.805 79.011,179.012 79.011,182.194 78.963 C 185.376 78.914,182.772 78.874,176.409 78.874 C 170.045 78.874,167.442 78.914,170.624 78.963 M204.153 78.963 C 208.586 79.010,215.754 79.010,220.081 78.963 C 224.408 78.916,220.781 78.878,212.021 78.878 C 203.261 78.878,199.720 78.916,204.153 78.963 M244.252 78.963 C 248.757 79.010,256.127 79.010,260.631 78.963 C 265.135 78.916,261.450 78.878,252.442 78.878 C 243.434 78.878,239.748 78.916,244.252 78.963 M167.661 89.360 C 163.730 90.984,161.475 93.826,160.796 98.013 C 160.371 100.631,160.370 171.038,160.794 173.655 C 161.414 177.473,163.419 180.254,166.726 181.882 L 168.733 182.870 198.341 182.870 L 227.949 182.870 229.661 182.068 C 231.845 181.044,233.936 178.952,234.960 176.768 L 235.763 175.056 235.763 135.838 L 235.763 96.619 234.960 94.907 C 233.936 92.723,231.845 90.632,229.661 89.608 L 227.949 88.805 198.648 88.734 L 169.346 88.663 167.661 89.360 M198.648 99.441 C 198.648 102.444,198.924 103.004,200.751 103.698 C 208.139 106.504,207.922 116.734,200.427 118.980 C 197.549 119.842,198.019 121.612,202.309 126.074 C 206.235 130.158,206.447 131.098,202.591 127.325 C 198.523 123.344,198.648 123.155,198.648 133.308 C 198.648 138.200,198.540 140.947,198.347 140.947 C 198.081 140.947,197.983 136.811,197.908 122.314 C 197.893 119.600,197.829 119.484,195.982 118.871 C 188.721 116.459,188.596 106.380,195.793 103.713 C 197.709 103.003,198.037 102.353,198.042 99.249 C 198.045 97.799,198.171 96.769,198.347 96.769 C 198.525 96.769,198.648 97.860,198.648 99.441 M195.013 104.982 C 188.545 108.396,191.020 118.239,198.347 118.236 C 203.599 118.233,206.840 113.057,204.635 108.195 C 203.019 104.632,198.521 103.130,195.013 104.982 M175.627 193.968 C 173.551 194.872,173.793 198.312,175.975 198.915 C 179.445 199.873,181.262 195.052,177.876 193.872 C 176.719 193.469,176.780 193.466,175.627 193.968 M201.159 193.825 C 199.522 194.515,199.042 196.823,200.245 198.221 C 201.822 200.055,204.959 198.839,204.959 196.394 C 204.959 194.508,202.878 193.101,201.159 193.825 M209.910 193.958 C 207.694 194.924,207.862 198.171,210.167 198.931 C 213.387 199.994,215.415 195.263,212.298 193.960 C 211.091 193.456,211.063 193.456,209.910 193.958 M227.004 193.830 C 224.750 194.763,225.000 198.482,227.358 199.074 C 229.044 199.497,230.249 198.087,230.259 195.680 C 230.264 194.314,228.398 193.254,227.004 193.830 M177.461 196.394 C 177.461 196.720,177.241 197.029,176.972 197.081 C 176.452 197.181,175.987 196.382,176.285 195.899 C 176.592 195.404,177.461 195.769,177.461 196.394 M202.855 196.394 C 202.855 196.945,202.695 197.145,202.254 197.145 C 201.813 197.145,201.653 196.945,201.653 196.394 C 201.653 195.843,201.813 195.642,202.254 195.642 C 202.695 195.642,202.855 195.843,202.855 196.394 M211.689 196.120 C 211.915 196.708,211.672 197.145,211.119 197.145 C 210.579 197.145,210.271 196.630,210.482 196.079 C 210.706 195.497,211.460 195.523,211.689 196.120 M166.052 199.654 C 165.055 200.383,165.808 200.751,168.295 200.751 C 169.758 200.751,170.745 200.619,170.877 200.405 C 171.255 199.794,170.038 199.249,168.295 199.249 C 167.353 199.249,166.361 199.428,166.052 199.654 M183.182 199.654 C 182.185 200.383,182.938 200.751,185.424 200.751 C 186.887 200.751,187.875 200.619,188.007 200.405 C 188.385 199.794,187.168 199.249,185.424 199.249 C 184.483 199.249,183.491 199.428,183.182 199.654 M191.466 199.523 C 190.392 200.204,191.383 200.751,193.689 200.751 C 195.496 200.751,196.000 200.653,196.146 200.270 C 196.421 199.554,195.702 199.258,193.689 199.258 C 192.697 199.258,191.697 199.377,191.466 199.523 M217.488 199.459 C 217.180 199.539,216.987 199.816,217.041 200.100 C 217.164 200.745,221.278 200.999,221.993 200.405 C 223.020 199.553,219.764 198.870,217.488 199.459 M89.316 216.439 C 88.804 216.951,88.804 230.532,89.316 231.044 C 89.939 231.667,101.690 231.543,102.217 230.908 C 102.539 230.520,102.630 228.953,102.630 223.742 C 102.630 218.530,102.539 216.963,102.217 216.575 C 101.690 215.940,89.939 215.816,89.316 216.439 M166.363 216.550 C 165.663 217.250,165.659 229.739,166.358 230.737 C 166.977 231.621,178.381 231.794,179.242 230.933 C 179.811 230.364,179.954 217.689,179.403 216.659 C 178.972 215.853,167.158 215.755,166.363 216.550 M185.485 216.439 C 185.225 216.698,185.124 218.743,185.124 223.742 C 185.124 228.740,185.225 230.785,185.485 231.044 C 185.739 231.298,187.455 231.405,191.285 231.405 C 195.115 231.405,196.831 231.298,197.085 231.044 C 197.345 230.785,197.446 228.740,197.446 223.742 C 197.446 218.743,197.345 216.698,197.085 216.439 C 196.831 216.185,195.115 216.078,191.285 216.078 C 187.455 216.078,185.739 216.185,185.485 216.439 M242.091 216.746 C 241.703 217.299,241.623 218.501,241.623 223.742 C 241.623 232.092,241.070 231.405,247.784 231.405 C 254.497 231.405,253.944 232.092,253.944 223.742 C 253.944 215.391,254.497 216.078,247.784 216.078 C 242.725 216.078,242.544 216.099,242.091 216.746 M192.524 221.325 C 192.859 222.199,191.873 225.244,191.254 225.244 C 190.499 225.244,189.908 222.091,190.523 221.349 C 191.010 220.763,192.302 220.747,192.524 221.325 M248.399 221.887 C 248.773 223.378,248.431 225.244,247.784 225.244 C 247.103 225.244,246.843 223.942,247.173 222.184 C 247.390 221.026,248.137 220.846,248.399 221.887 M97.059 222.369 C 97.945 224.024,97.259 225.695,95.694 225.695 C 94.431 225.695,93.942 225.063,94.161 223.712 C 94.469 221.820,96.309 220.967,97.059 222.369 M174.181 222.537 C 174.985 223.765,174.129 225.695,172.781 225.695 C 171.992 225.695,170.999 224.644,170.999 223.808 C 170.999 221.924,173.202 221.044,174.181 222.537 M135.499 237.011 C 135.177 237.399,135.086 238.966,135.086 244.177 C 135.086 252.678,134.315 251.841,142.149 251.841 C 149.982 251.841,149.211 252.678,149.211 244.177 C 149.211 235.677,149.982 236.514,142.149 236.514 C 136.713 236.514,135.858 236.578,135.499 237.011 M248.896 236.875 C 248.636 237.134,248.535 239.179,248.535 244.177 C 248.535 249.176,248.636 251.220,248.896 251.480 C 249.153 251.737,251.042 251.841,255.490 251.841 C 263.380 251.841,262.660 252.611,262.660 244.177 C 262.660 235.744,263.380 236.514,255.490 236.514 C 251.042 236.514,249.153 236.617,248.896 236.875 M143.402 242.721 C 144.087 243.341,144.115 244.852,143.455 245.581 C 142.368 246.782,140.346 245.903,140.346 244.230 C 140.346 242.484,142.154 241.592,143.402 242.721 M257.193 243.974 C 257.308 245.563,256.883 246.131,255.582 246.131 C 254.279 246.131,253.644 245.451,253.644 244.056 C 253.644 242.616,253.655 242.608,255.528 242.644 L 257.100 242.675 257.193 243.974 " stroke="none" fill="#d3cbe3" fill-rule="evenodd"></path><path id="path1" d="M80.824 12.906 C 79.436 13.329,78.752 13.828,78.215 14.810 C 77.377 16.343,77.393 279.103,78.232 280.640 C 79.524 283.009,66.784 282.781,198.416 282.788 C 328.930 282.796,317.222 282.996,318.627 280.736 L 319.309 279.639 319.309 147.708 L 319.309 15.778 318.640 14.702 C 318.272 14.111,317.596 13.435,317.137 13.200 C 316.208 12.723,82.378 12.433,80.824 12.906 M218.154 32.492 C 219.959 33.121,219.368 34.387,217.215 34.500 C 214.097 34.663,212.871 39.068,215.945 39.068 C 216.848 39.068,216.933 38.288,216.061 38.011 C 214.494 37.514,215.462 36.213,217.398 36.213 C 219.202 36.213,219.395 36.330,219.817 37.675 C 219.961 38.137,220.072 38.169,220.446 37.858 C 220.702 37.645,220.825 37.243,220.726 36.934 C 220.015 34.692,224.715 34.178,225.850 36.374 C 226.454 37.542,226.438 40.386,225.824 41.000 C 225.169 41.655,221.724 41.646,220.609 40.987 C 219.853 40.541,219.713 40.541,218.849 40.987 C 216.663 42.118,213.272 41.404,212.159 39.580 C 209.770 35.661,213.749 30.956,218.154 32.492 M155.611 32.834 C 155.783 33.041,155.969 33.683,156.024 34.261 C 156.156 35.661,158.459 35.927,158.612 34.560 C 158.818 32.720,158.969 32.457,159.825 32.457 C 161.176 32.457,161.382 32.923,161.382 35.973 C 161.382 37.524,161.509 38.768,161.666 38.768 C 162.220 38.768,162.853 37.480,162.693 36.679 C 162.339 34.910,165.747 34.281,167.296 35.830 C 168.346 36.880,168.699 40.124,167.854 40.969 C 167.062 41.761,163.520 41.672,162.454 40.834 L 161.642 40.195 161.195 40.834 C 160.181 42.281,158.774 41.477,158.623 39.363 L 158.527 38.017 157.325 38.017 C 156.124 38.017,156.123 38.018,155.965 39.369 C 155.726 41.412,154.697 42.180,153.629 41.112 C 153.250 40.733,153.100 33.847,153.451 32.932 C 153.670 32.362,155.163 32.294,155.611 32.834 M174.920 35.926 L 175.808 36.777 176.727 35.896 C 177.902 34.770,181.856 34.600,182.640 35.641 C 183.846 37.244,182.663 42.823,180.926 43.721 C 178.467 44.993,175.373 43.716,176.881 42.050 C 177.311 41.575,177.305 41.473,176.814 40.900 C 176.140 40.112,175.755 40.105,175.276 40.872 C 174.366 42.330,172.805 41.393,172.798 39.384 C 172.795 38.632,172.675 37.830,172.531 37.602 C 172.070 36.875,171.600 37.558,171.600 38.956 C 171.600 41.347,170.172 42.388,169.063 40.805 C 168.232 39.618,168.576 35.561,169.538 35.205 C 171.030 34.653,174.008 35.052,174.920 35.926 M189.632 35.199 C 189.880 35.194,190.640 35.152,191.321 35.106 C 192.836 35.005,193.433 35.456,193.854 37.019 C 194.250 38.491,194.839 38.380,195.041 36.794 C 195.332 34.519,198.622 34.193,200.040 36.298 C 200.742 37.340,200.850 37.310,201.166 35.988 C 201.275 35.533,201.530 35.150,201.734 35.136 C 206.987 34.778,207.663 35.204,207.663 38.872 C 207.663 40.890,207.349 41.473,206.262 41.473 C 205.384 41.473,204.959 40.651,204.959 38.956 C 204.959 37.558,204.489 36.875,204.028 37.602 C 203.884 37.830,203.764 38.632,203.761 39.384 C 203.754 41.438,202.418 42.215,201.202 40.871 L 200.658 40.270 200.237 40.871 C 199.710 41.624,195.867 41.737,194.931 41.028 C 194.444 40.660,194.275 40.666,193.656 41.071 C 192.112 42.083,191.134 41.059,191.134 38.430 C 191.134 37.862,190.980 37.566,190.684 37.566 C 190.349 37.566,190.233 37.919,190.233 38.938 C 190.233 40.650,189.810 41.473,188.930 41.473 C 187.999 41.473,187.529 40.925,187.524 39.835 C 187.518 38.464,187.208 37.566,186.742 37.566 C 186.445 37.566,186.326 37.981,186.326 39.011 C 186.326 40.755,185.816 41.569,184.814 41.426 C 183.853 41.289,183.331 40.179,183.325 38.261 C 183.317 35.206,183.634 34.939,187.075 35.106 C 188.233 35.162,189.384 35.204,189.632 35.199 M232.908 35.193 C 233.156 35.191,233.947 35.151,234.666 35.105 C 235.959 35.021,236.764 35.541,237.203 36.743 C 237.291 36.985,237.693 36.788,238.354 36.176 C 239.590 35.034,240.748 34.724,242.109 35.173 C 243.684 35.693,244.602 37.917,243.589 38.757 C 243.305 38.993,243.211 39.419,243.321 39.968 C 243.656 41.645,240.357 42.139,238.615 40.673 L 237.665 39.874 236.991 40.719 C 235.692 42.348,234.424 41.350,234.414 38.693 C 234.407 36.799,233.609 37.254,233.444 39.246 C 233.306 40.904,232.944 41.463,232.006 41.463 C 231.107 41.463,230.767 40.934,230.595 39.266 C 230.371 37.101,229.602 36.847,229.602 38.938 C 229.602 40.628,229.180 41.473,228.338 41.473 C 227.172 41.473,226.597 40.625,226.597 38.909 C 226.597 35.242,226.894 34.935,230.286 35.094 C 231.480 35.150,232.660 35.194,232.908 35.193 M178.723 37.455 C 178.383 37.795,178.481 38.668,178.898 39.014 C 179.459 39.480,180.084 38.965,179.966 38.136 C 179.867 37.436,179.140 37.038,178.723 37.455 M157.454 65.104 C 158.373 66.272,158.412 77.054,157.502 78.179 L 156.928 78.888 142.186 78.888 C 128.442 78.888,127.408 78.852,126.908 78.352 C 126.001 77.446,125.932 66.263,126.827 65.126 L 127.467 64.313 142.149 64.313 L 156.831 64.313 157.454 65.104 M189.026 65.126 C 189.921 66.263,189.852 77.446,188.945 78.352 C 188.448 78.849,187.520 78.888,176.371 78.888 L 164.335 78.888 163.760 78.179 C 162.855 77.060,162.887 65.949,163.798 64.970 C 164.409 64.315,164.454 64.313,176.399 64.313 L 188.386 64.313 189.026 65.126 M228.742 64.886 C 230.307 66.152,229.876 77.942,228.238 78.688 C 226.648 79.413,196.481 79.161,195.533 78.415 L 194.741 77.793 194.741 71.654 C 194.741 65.915,194.780 65.475,195.342 64.914 C 196.260 63.996,227.609 63.970,228.742 64.886 M269.614 64.886 C 270.462 65.573,270.890 75.805,270.145 77.603 C 269.562 79.011,269.217 79.038,252.289 79.038 L 236.247 79.038 235.404 78.314 L 234.560 77.589 234.464 72.538 C 234.357 66.881,234.486 65.740,235.329 64.897 C 236.232 63.994,268.498 63.984,269.614 64.886 M229.661 89.608 C 231.845 90.632,233.936 92.723,234.960 94.907 L 235.763 96.619 235.763 135.838 L 235.763 175.056 234.960 176.768 C 233.936 178.952,231.845 181.044,229.661 182.068 L 227.949 182.870 198.341 182.870 L 168.733 182.870 166.726 181.882 C 163.419 180.254,161.414 177.473,160.794 173.655 C 160.370 171.038,160.371 100.631,160.796 98.013 C 161.475 93.826,163.730 90.984,167.661 89.360 L 169.346 88.663 198.648 88.734 L 227.949 88.805 229.661 89.608 M198.042 99.249 C 198.037 102.353,197.709 103.003,195.793 103.713 C 188.596 106.380,188.721 116.459,195.982 118.871 C 197.829 119.484,197.893 119.600,197.908 122.314 C 197.983 136.811,198.081 140.947,198.347 140.947 C 198.540 140.947,198.648 138.200,198.648 133.308 C 198.648 123.155,198.523 123.344,202.591 127.325 C 206.447 131.098,206.235 130.158,202.309 126.074 C 198.019 121.612,197.549 119.842,200.427 118.980 C 207.922 116.734,208.139 106.504,200.751 103.698 C 198.924 103.004,198.648 102.444,198.648 99.441 C 198.648 97.860,198.525 96.769,198.347 96.769 C 198.171 96.769,198.045 97.799,198.042 99.249 M201.588 105.001 C 204.030 106.240,205.241 108.315,205.253 111.279 C 205.285 119.826,193.320 120.959,191.444 112.588 C 190.176 106.928,196.322 102.331,201.588 105.001 M177.876 193.872 C 181.262 195.052,179.445 199.873,175.975 198.915 C 173.793 198.312,173.551 194.872,175.627 193.968 C 176.780 193.466,176.719 193.469,177.876 193.872 M204.282 194.607 C 205.181 195.627,205.172 197.164,204.263 198.221 C 202.706 200.031,199.549 198.840,199.549 196.444 C 199.549 193.846,202.578 192.670,204.282 194.607 M212.298 193.960 C 215.415 195.263,213.387 199.994,210.167 198.931 C 207.862 198.171,207.694 194.924,209.910 193.958 C 211.063 193.456,211.091 193.456,212.298 193.960 M229.706 194.422 C 230.716 195.412,230.219 198.261,228.929 198.882 C 226.628 199.990,224.363 196.949,225.877 194.786 C 226.804 193.463,228.559 193.296,229.706 194.422 M176.285 195.899 C 175.987 196.382,176.452 197.181,176.972 197.081 C 177.613 196.957,177.605 195.829,176.963 195.705 C 176.689 195.652,176.384 195.740,176.285 195.899 M201.653 196.394 C 201.653 196.945,201.813 197.145,202.254 197.145 C 202.695 197.145,202.855 196.945,202.855 196.394 C 202.855 195.843,202.695 195.642,202.254 195.642 C 201.813 195.642,201.653 195.843,201.653 196.394 M210.482 196.079 C 210.271 196.630,210.579 197.145,211.119 197.145 C 211.672 197.145,211.915 196.708,211.689 196.120 C 211.460 195.523,210.706 195.497,210.482 196.079 M170.537 199.654 C 171.534 200.383,170.781 200.751,168.295 200.751 C 166.832 200.751,165.844 200.619,165.712 200.405 C 165.334 199.794,166.551 199.249,168.295 199.249 C 169.236 199.249,170.228 199.428,170.537 199.654 M187.667 199.654 C 188.664 200.383,187.911 200.751,185.424 200.751 C 183.962 200.751,182.974 200.619,182.842 200.405 C 182.464 199.794,183.681 199.249,185.424 199.249 C 186.366 199.249,187.358 199.428,187.667 199.654 M195.912 199.523 C 196.986 200.204,195.995 200.751,193.689 200.751 C 191.882 200.751,191.378 200.653,191.232 200.270 C 190.957 199.554,191.676 199.258,193.689 199.258 C 194.681 199.258,195.681 199.377,195.912 199.523 M221.908 199.640 C 222.885 200.354,221.819 200.790,219.340 200.690 C 217.567 200.618,217.118 200.503,217.041 200.100 C 216.880 199.259,220.871 198.882,221.908 199.640 M121.877 216.215 L 122.615 216.952 122.615 223.742 L 122.615 230.531 121.860 231.285 L 121.106 232.040 114.773 231.948 C 106.795 231.832,107.588 232.758,107.588 223.551 C 107.588 214.619,106.797 215.477,115.032 215.477 C 121.116 215.477,121.142 215.480,121.877 216.215 M140.947 216.078 C 141.732 216.863,141.886 230.226,141.122 231.272 C 140.728 231.811,140.228 231.863,134.564 231.948 C 126.255 232.072,126.998 232.848,126.881 223.921 L 126.791 216.984 127.544 216.230 L 128.297 215.477 134.321 215.477 C 139.945 215.477,140.386 215.517,140.947 216.078 M160.656 216.211 C 160.995 216.675,161.082 218.225,161.082 223.777 L 161.082 230.760 160.290 231.383 C 159.075 232.339,148.063 232.339,146.847 231.383 L 146.056 230.760 146.056 223.720 C 146.056 214.567,145.257 215.415,153.760 215.536 C 159.759 215.621,160.261 215.670,160.656 216.211 M216.612 215.945 C 217.519 216.580,217.675 230.703,216.783 231.443 C 215.940 232.143,203.655 232.033,202.941 231.319 C 201.984 230.363,202.137 216.842,203.114 216.052 C 204.091 215.261,215.506 215.170,216.612 215.945 M236.213 216.078 C 236.836 216.701,237.170 230.108,236.584 230.984 C 235.678 232.341,223.838 232.581,222.526 231.268 L 221.788 230.531 221.788 223.627 L 221.788 216.723 222.580 216.100 C 223.778 215.157,235.274 215.139,236.213 216.078 M271.074 216.078 C 271.697 216.701,272.031 230.108,271.445 230.984 C 270.887 231.821,269.759 232.006,265.214 232.006 C 258.295 232.006,258.763 232.611,258.757 223.666 C 258.752 214.716,258.152 215.477,265.214 215.477 C 270.073 215.477,270.519 215.523,271.074 216.078 M290.171 216.215 L 290.909 216.952 290.909 223.742 L 290.909 230.531 290.171 231.268 C 288.861 232.578,277.319 232.340,276.413 230.984 C 275.828 230.108,276.162 216.701,276.784 216.078 C 277.813 215.049,289.121 215.165,290.171 216.215 M307.602 216.215 L 308.340 216.952 308.340 223.742 L 308.340 230.531 307.583 231.288 L 306.826 232.045 301.582 231.950 C 294.645 231.825,295.267 232.638,295.267 223.704 C 295.267 214.743,294.686 215.477,301.775 215.477 C 306.778 215.477,306.877 215.490,307.602 216.215 M102.217 216.575 C 102.539 216.963,102.630 218.530,102.630 223.742 C 102.630 228.953,102.539 230.520,102.217 230.908 C 101.690 231.543,89.939 231.667,89.316 231.044 C 88.804 230.532,88.804 216.951,89.316 216.439 C 89.939 215.816,101.690 215.940,102.217 216.575 M179.403 216.659 C 179.954 217.689,179.811 230.364,179.242 230.933 C 178.381 231.794,166.977 231.621,166.358 230.737 C 165.659 229.739,165.663 217.250,166.363 216.550 C 167.158 215.755,178.972 215.853,179.403 216.659 M197.085 216.439 C 197.345 216.698,197.446 218.743,197.446 223.742 C 197.446 228.740,197.345 230.785,197.085 231.044 C 196.831 231.298,195.115 231.405,191.285 231.405 C 187.455 231.405,185.739 231.298,185.485 231.044 C 185.225 230.785,185.124 228.740,185.124 223.742 C 185.124 218.743,185.225 216.698,185.485 216.439 C 185.739 216.185,187.455 216.078,191.285 216.078 C 195.115 216.078,196.831 216.185,197.085 216.439 M253.477 216.746 C 253.864 217.299,253.944 218.501,253.944 223.742 C 253.944 232.092,254.497 231.405,247.784 231.405 C 241.070 231.405,241.623 232.092,241.623 223.742 C 241.623 215.391,241.070 216.078,247.784 216.078 C 252.842 216.078,253.024 216.099,253.477 216.746 M190.523 221.349 C 189.908 222.091,190.499 225.244,191.254 225.244 C 191.873 225.244,192.859 222.199,192.524 221.325 C 192.302 220.747,191.010 220.763,190.523 221.349 M247.173 222.184 C 246.843 223.942,247.103 225.244,247.784 225.244 C 248.431 225.244,248.773 223.378,248.399 221.887 C 248.137 220.846,247.390 221.026,247.173 222.184 M94.688 222.212 C 93.499 223.645,94.091 225.695,95.694 225.695 C 97.259 225.695,97.945 224.024,97.059 222.369 C 96.690 221.679,95.212 221.581,94.688 222.212 M171.467 222.456 C 170.829 223.367,170.880 224.373,171.600 225.094 C 172.677 226.171,174.079 225.649,174.488 224.019 C 174.943 222.206,172.520 220.953,171.467 222.456 M110.156 236.651 L 110.894 237.388 110.894 244.177 L 110.894 250.966 110.156 251.704 L 109.419 252.442 102.534 252.442 C 96.023 252.442,95.605 252.408,94.856 251.819 L 94.065 251.196 94.065 244.177 L 94.065 237.159 94.856 236.536 C 95.605 235.947,96.023 235.913,102.534 235.913 L 109.419 235.913 110.156 236.651 M129.460 236.381 C 130.119 236.842,130.128 236.945,130.128 244.177 C 130.128 253.332,130.930 252.442,122.684 252.442 C 116.600 252.442,116.574 252.439,115.839 251.704 L 115.101 250.966 115.101 244.177 L 115.101 237.388 115.839 236.651 C 116.782 235.707,128.176 235.482,129.460 236.381 M168.458 236.651 L 169.196 237.388 169.196 244.177 L 169.196 250.966 168.442 251.721 L 167.687 252.475 161.355 252.383 C 155.492 252.298,154.990 252.248,154.596 251.708 C 154.014 250.911,153.968 237.484,154.545 236.756 C 155.496 235.557,167.276 235.468,168.458 236.651 M187.871 236.487 C 188.580 237.062,188.580 237.062,188.580 244.177 C 188.580 253.266,189.329 252.442,181.067 252.442 C 172.805 252.442,173.554 253.266,173.554 244.177 C 173.554 235.089,172.805 235.913,181.067 235.913 C 186.619 235.913,187.224 235.964,187.871 236.487 M206.024 236.651 L 206.762 237.388 206.762 244.177 L 206.762 250.966 206.024 251.704 C 205.295 252.433,205.221 252.442,199.850 252.442 C 194.478 252.442,194.404 252.433,193.675 251.704 L 192.938 250.966 192.938 244.177 L 192.938 237.388 193.675 236.651 C 194.404 235.922,194.478 235.913,199.850 235.913 C 205.221 235.913,205.295 235.922,206.024 236.651 M225.269 236.646 C 225.608 237.110,225.695 238.656,225.695 244.177 C 225.695 249.699,225.608 251.245,225.269 251.708 C 224.601 252.622,212.950 252.775,211.850 251.884 L 211.119 251.293 211.119 244.177 L 211.119 237.062 211.850 236.471 C 212.950 235.580,224.601 235.733,225.269 236.646 M242.867 236.487 C 243.983 237.391,243.983 250.963,242.867 251.867 C 242.017 252.555,232.539 252.743,231.310 252.096 C 230.235 251.530,230.212 251.366,230.212 244.177 C 230.212 237.059,230.240 236.847,231.255 236.272 C 232.395 235.626,242.023 235.804,242.867 236.487 M281.456 236.651 L 282.194 237.388 282.194 244.177 L 282.194 250.966 281.439 251.721 L 280.684 252.476 274.502 252.384 C 268.789 252.299,268.288 252.247,267.894 251.708 C 267.312 250.911,267.267 237.484,267.844 236.756 C 268.794 235.558,280.275 235.469,281.456 236.651 M301.892 236.651 L 302.630 237.388 302.630 244.177 L 302.630 250.966 301.892 251.704 L 301.154 252.442 294.562 252.442 C 285.720 252.442,286.551 253.300,286.551 244.177 C 286.551 235.055,285.720 235.913,294.562 235.913 L 301.154 235.913 301.892 236.651 M148.799 237.011 C 149.121 237.399,149.211 238.966,149.211 244.177 C 149.211 252.678,149.982 251.841,142.149 251.841 C 134.315 251.841,135.086 252.678,135.086 244.177 C 135.086 235.677,134.315 236.514,142.149 236.514 C 147.584 236.514,148.439 236.578,148.799 237.011 M262.192 237.182 C 262.579 237.735,262.660 238.937,262.660 244.177 C 262.660 252.611,263.380 251.841,255.490 251.841 C 251.042 251.841,249.153 251.737,248.896 251.480 C 248.636 251.220,248.535 249.176,248.535 244.177 C 248.535 239.179,248.636 237.134,248.896 236.875 C 249.655 236.115,261.638 236.392,262.192 237.182 M140.843 242.773 C 140.183 243.503,140.210 245.014,140.895 245.633 C 142.143 246.763,143.952 245.871,143.952 244.125 C 143.952 242.452,141.930 241.573,140.843 242.773 M253.800 242.769 C 253.447 243.122,253.677 245.219,254.116 245.658 C 255.461 247.004,257.338 245.977,257.193 243.974 L 257.100 242.675 255.528 242.644 C 254.663 242.627,253.885 242.684,253.800 242.769 M186.189 257.086 L 186.927 257.824 186.927 264.728 L 186.927 271.632 186.135 272.255 C 184.937 273.197,173.441 273.216,172.502 272.276 C 171.879 271.654,171.545 258.240,172.131 257.375 C 173.045 256.024,184.884 255.781,186.189 257.086 M205.475 257.036 C 205.958 257.520,206.011 258.260,206.011 264.650 C 206.011 273.695,206.757 272.878,198.497 272.878 C 190.289 272.878,191.010 273.611,190.893 265.152 C 190.797 258.180,190.946 257.133,192.107 256.651 C 193.445 256.096,204.864 256.425,205.475 257.036 M224.002 256.971 L 224.793 257.594 224.793 264.577 C 224.793 273.566,225.489 272.702,218.152 272.821 C 209.350 272.964,210.068 273.682,210.068 264.728 L 210.068 257.824 210.805 257.086 C 211.870 256.022,222.675 255.928,224.002 256.971 " stroke="none" fill="#9c9beb" fill-rule="evenodd"></path><path id="path2" d="M127.515 64.612 C 126.051 65.211,125.569 76.589,126.944 78.106 C 127.845 79.101,156.454 79.100,157.354 78.105 C 158.200 77.169,158.231 65.840,157.390 64.999 C 156.790 64.400,128.916 64.038,127.515 64.612 M164.045 64.886 C 162.858 65.847,162.785 77.092,163.959 78.266 C 164.806 79.113,188.132 78.964,188.909 78.106 C 190.339 76.528,189.781 65.184,188.245 64.600 C 186.623 63.983,164.843 64.241,164.045 64.886 M195.461 65.068 L 194.706 65.823 194.798 71.854 C 194.884 77.418,194.936 77.919,195.474 78.312 C 195.961 78.667,198.744 78.738,212.212 78.738 L 228.366 78.738 228.833 78.070 C 229.218 77.520,229.301 76.353,229.301 71.480 L 229.301 65.558 228.509 64.935 C 227.731 64.323,227.446 64.313,211.967 64.313 L 196.216 64.313 195.461 65.068 M235.503 64.935 L 234.711 65.558 234.711 71.547 C 234.711 77.135,234.751 77.576,235.312 78.137 C 236.210 79.035,268.865 79.084,269.675 78.188 C 270.204 77.605,270.443 66.084,269.943 65.334 C 269.296 64.365,268.385 64.313,252.352 64.313 C 236.562 64.313,236.281 64.323,235.503 64.935 M108.256 215.945 C 107.409 216.538,107.194 230.150,108.014 231.272 C 108.409 231.812,108.910 231.863,114.773 231.948 L 121.106 232.040 121.860 231.285 L 122.615 230.531 122.615 223.742 L 122.615 216.952 121.877 216.215 C 120.934 215.272,109.540 215.046,108.256 215.945 M127.544 216.230 L 126.791 216.984 126.881 223.921 C 126.998 232.848,126.255 232.072,134.564 231.948 C 142.301 231.832,141.548 232.723,141.548 223.684 C 141.548 214.650,142.276 215.477,134.321 215.477 L 128.297 215.477 127.544 216.230 M146.673 216.062 C 146.085 216.650,146.056 217.017,146.056 223.720 L 146.056 230.760 146.847 231.383 C 148.063 232.339,159.075 232.339,160.290 231.383 L 161.082 230.760 161.082 223.777 C 161.082 218.225,160.995 216.675,160.656 216.211 C 159.972 215.274,147.592 215.142,146.673 216.062 M203.114 216.052 C 202.137 216.842,201.984 230.363,202.941 231.319 C 203.655 232.033,215.940 232.143,216.783 231.443 C 217.675 230.703,217.519 216.580,216.612 215.945 C 215.506 215.170,204.091 215.261,203.114 216.052 M222.580 216.100 L 221.788 216.723 221.788 223.627 L 221.788 230.531 222.526 231.268 C 223.838 232.581,235.678 232.341,236.584 230.984 C 237.170 230.108,236.836 216.701,236.213 216.078 C 235.274 215.139,223.778 215.157,222.580 216.100 M259.354 216.078 C 258.731 216.701,258.397 230.108,258.983 230.984 C 259.542 231.821,260.670 232.006,265.214 232.006 C 272.134 232.006,271.665 232.611,271.671 223.666 C 271.677 214.716,272.276 215.477,265.214 215.477 C 260.356 215.477,259.909 215.523,259.354 216.078 M276.784 216.078 C 276.162 216.701,275.828 230.108,276.413 230.984 C 277.319 232.340,288.861 232.578,290.171 231.268 L 290.909 230.531 290.909 223.742 L 290.909 216.952 290.171 216.215 C 289.121 215.165,277.813 215.049,276.784 216.078 M295.976 216.052 C 295.267 216.626,295.267 216.628,295.267 223.704 C 295.267 232.638,294.645 231.825,301.582 231.950 L 306.826 232.045 307.583 231.288 L 308.340 230.531 308.340 223.742 L 308.340 216.952 307.602 216.215 C 306.578 215.191,297.202 215.059,295.976 216.052 M94.856 236.536 L 94.065 237.159 94.065 244.177 L 94.065 251.196 94.856 251.819 C 95.605 252.408,96.023 252.442,102.534 252.442 L 109.419 252.442 110.156 251.704 L 110.894 250.966 110.894 244.177 L 110.894 237.388 110.156 236.651 L 109.419 235.913 102.534 235.913 C 96.023 235.913,95.605 235.947,94.856 236.536 M115.839 236.651 L 115.101 237.388 115.101 244.177 L 115.101 250.966 115.839 251.704 C 116.574 252.439,116.600 252.442,122.684 252.442 C 130.930 252.442,130.128 253.332,130.128 244.177 C 130.128 235.022,130.930 235.913,122.684 235.913 C 116.600 235.913,116.574 235.916,115.839 236.651 M155.372 236.121 C 154.252 236.522,154.170 237.074,154.170 244.177 C 154.170 253.164,153.385 252.268,161.355 252.383 L 167.687 252.475 168.442 251.721 L 169.196 250.966 169.196 244.177 L 169.196 237.388 168.458 236.651 C 167.741 235.933,157.102 235.503,155.372 236.121 M174.263 236.487 C 173.554 237.062,173.554 237.062,173.554 244.177 C 173.554 253.266,172.805 252.442,181.067 252.442 C 189.329 252.442,188.580 253.266,188.580 244.177 C 188.580 235.089,189.329 235.913,181.067 235.913 C 175.514 235.913,174.910 235.964,174.263 236.487 M193.675 236.651 L 192.938 237.388 192.938 244.177 L 192.938 250.966 193.675 251.704 C 194.404 252.433,194.478 252.442,199.850 252.442 C 205.221 252.442,205.295 252.433,206.024 251.704 L 206.762 250.966 206.762 244.177 L 206.762 237.388 206.024 236.651 C 205.295 235.922,205.221 235.913,199.850 235.913 C 194.478 235.913,194.404 235.922,193.675 236.651 M211.850 236.471 L 211.119 237.062 211.119 244.177 L 211.119 251.293 211.850 251.884 C 212.950 252.775,224.601 252.622,225.269 251.708 C 225.608 251.245,225.695 249.699,225.695 244.177 C 225.695 238.656,225.608 237.110,225.269 236.646 C 224.601 235.733,212.950 235.580,211.850 236.471 M231.255 236.272 C 230.240 236.847,230.212 237.059,230.212 244.177 C 230.212 253.076,229.686 252.442,237.062 252.442 C 244.160 252.442,243.576 253.182,243.576 244.177 C 243.576 235.164,244.169 235.909,237.007 235.922 C 233.737 235.928,231.636 236.056,231.255 236.272 M268.670 236.121 C 267.551 236.522,267.468 237.074,267.468 244.177 C 267.468 253.154,266.709 252.267,274.502 252.384 L 280.684 252.476 281.439 251.721 L 282.194 250.966 282.194 244.177 L 282.194 237.388 281.456 236.651 C 280.739 235.933,270.395 235.505,268.670 236.121 M287.261 236.487 C 286.551 237.062,286.551 237.062,286.551 244.177 C 286.551 253.300,285.720 252.442,294.562 252.442 L 301.154 252.442 301.892 251.704 L 302.630 250.966 302.630 244.177 L 302.630 237.388 301.892 236.651 L 301.154 235.913 294.562 235.913 C 288.520 235.913,287.911 235.961,287.261 236.487 M172.953 256.708 C 171.938 257.283,171.910 257.494,171.905 264.688 C 171.899 273.709,171.157 272.878,179.223 272.878 C 184.960 272.878,185.393 272.838,186.135 272.255 L 186.927 271.632 186.927 264.728 L 186.927 257.824 186.189 257.086 C 185.353 256.249,174.317 255.934,172.953 256.708 M192.107 256.651 C 190.946 257.133,190.797 258.180,190.893 265.152 C 191.010 273.611,190.289 272.878,198.497 272.878 C 206.757 272.878,206.011 273.695,206.011 264.650 C 206.011 258.260,205.958 257.520,205.475 257.036 C 204.864 256.425,193.445 256.096,192.107 256.651 M210.805 257.086 L 210.068 257.824 210.068 264.728 C 210.068 273.682,209.350 272.964,218.152 272.821 C 225.489 272.702,224.793 273.566,224.793 264.577 L 224.793 257.594 224.002 256.971 C 222.675 255.928,211.870 256.022,210.805 257.086 " stroke="none" fill="#dfce73" fill-rule="evenodd"></path></g></svg>