<svg version="1.1" id="Layer_1" xmlns="http://www.w3.org/2000/svg" xmlns:xlink="http://www.w3.org/1999/xlink" x="0px" y="0px"
	 width="100%" viewBox="0 0 1920 932" enable-background="new 0 0 1920 932" xml:space="preserve">
<path fill="#212121" opacity="1.000000" stroke="none" 
	d="
M26.000000,1.000000 
	C649.368225,1.000000 1272.736450,1.000000 1896.802002,1.233443 
	C1899.615845,2.097811 1901.702637,3.119129 1903.854980,3.283972 
	C1909.554932,3.720496 1915.283081,3.786540 1921.000000,4.000000 
	C1921.000000,313.634338 1921.000000,623.268677 1921.000000,932.951538 
	C1281.099121,932.951538 641.198364,932.951538 1.000000,932.951538 
	C1.000000,623.631836 1.000000,314.263550 1.452806,4.309545 
	C7.693367,3.601941 13.496293,3.684593 19.261372,3.256981 
	C21.550787,3.087168 23.756292,1.786058 26.000000,1.000000 
M1580.691284,248.239609 
	C1557.989258,251.924805 1536.837769,259.650757 1518.057251,273.086182 
	C1482.229248,298.717255 1461.545532,333.074463 1458.846802,377.513611 
	C1458.633545,381.024902 1457.474365,383.248505 1454.519897,385.254852 
	C1450.299805,388.120605 1450.128174,393.403107 1453.588135,396.957642 
	C1456.994263,400.456635 1462.763306,400.416962 1466.134766,396.871338 
	C1469.473267,393.360504 1469.245117,387.825867 1464.913574,385.190094 
	C1461.216553,382.940430 1460.717896,380.060181 1460.930420,376.393097 
	C1462.221680,354.118500 1468.681152,333.420410 1480.911743,314.810425 
	C1506.863403,275.322998 1543.828247,253.568085 1590.705200,249.652634 
	C1635.210938,245.935257 1673.996704,259.616791 1705.392334,291.848175 
	C1757.859863,345.712524 1752.240356,430.737335 1693.245972,477.296326 
	C1669.911255,495.712402 1643.141968,505.329895 1613.423462,506.692932 
	C1611.772095,506.768646 1610.133057,507.112640 1608.488281,507.331757 
	C1608.531860,507.839111 1608.575317,508.346497 1608.618774,508.853851 
	C1610.844971,508.853851 1613.081421,508.995514 1615.295654,508.832489 
	C1647.189453,506.484100 1675.762817,495.751373 1699.833740,474.395111 
	C1728.124634,449.294647 1744.078735,417.766937 1743.319824,379.809540 
	C1742.243164,325.966309 1715.767090,286.943024 1668.556641,262.072937 
	C1641.321533,247.725723 1611.921143,244.321228 1580.691284,248.239609 
M1590.143921,487.089233 
	C1604.434814,488.371582 1618.414673,486.641022 1632.135742,482.633484 
	C1714.005981,458.721344 1742.247925,362.217712 1685.271240,300.780487 
	C1683.009399,298.341583 1681.715698,296.005341 1681.976807,292.401703 
	C1682.363037,287.072479 1677.851074,283.374878 1672.592651,283.957031 
	C1667.878906,284.478882 1664.556396,288.449127 1665.116211,292.890961 
	C1665.741943,297.854980 1670.861206,301.560913 1675.830688,299.682678 
	C1679.731323,298.208344 1681.613770,299.768646 1683.930176,302.183838 
	C1720.242188,340.044861 1722.825684,400.425049 1689.862305,441.917755 
	C1659.121582,480.612793 1605.550659,495.531525 1558.544800,478.340698 
	C1526.897339,466.766693 1503.670288,445.766144 1492.449585,413.880890 
	C1479.072021,375.866821 1487.163086,341.378143 1513.924438,311.273285 
	C1515.230469,309.804108 1516.458740,308.265869 1517.723267,306.759796 
	C1517.368530,306.451050 1517.013916,306.142303 1516.659180,305.833557 
	C1515.463379,306.868286 1514.147705,307.793732 1513.089355,308.953796 
	C1488.887573,335.478577 1479.206421,366.364685 1486.668701,401.702515 
	C1496.519653,448.351532 1539.206055,483.515656 1590.143921,487.089233 
M1538.584473,437.911285 
	C1557.991821,455.476776 1590.711792,468.385162 1605.620483,463.241089 
	C1602.219482,462.746155 1600.231934,462.331360 1598.224731,462.184113 
	C1576.677979,460.603943 1557.834595,452.672516 1541.882690,438.086609 
	C1506.185669,405.446106 1505.225708,351.065979 1539.949097,318.003632 
	C1561.284180,297.688965 1587.029541,290.223663 1615.917358,294.268555 
	C1651.024292,299.184265 1683.522217,326.557800 1687.461182,367.005157 
	C1687.767822,370.152924 1687.831055,372.758728 1684.349121,374.525177 
	C1680.841553,376.304718 1679.591553,379.630096 1680.810425,383.462006 
	C1682.073975,387.434418 1685.082397,389.384277 1689.165649,389.307098 
	C1693.030151,389.234009 1695.912231,387.277802 1697.088867,383.539734 
	C1698.282349,379.748474 1697.041870,376.414215 1693.588379,374.544037 
	C1690.641235,372.948120 1689.938843,370.686646 1689.669800,367.667755 
	C1688.543457,355.026703 1685.105835,342.986023 1678.078369,332.388245 
	C1656.788086,300.280731 1626.440063,286.880188 1588.699341,292.273895 
	C1553.455078,297.310852 1528.253662,316.876373 1516.824707,350.951935 
	C1505.858765,383.647034 1514.507812,412.647461 1538.584473,437.911285 
M1446.254395,440.358307 
	C1459.992798,468.700195 1480.113525,491.228668 1507.239136,507.327576 
	C1505.659302,505.240875 1503.685303,503.554932 1501.668945,501.921417 
	C1495.331543,496.787018 1488.579834,492.090271 1482.696411,486.481506 
	C1447.091064,452.537872 1430.211426,410.758545 1434.481567,361.816864 
	C1441.334106,283.282745 1510.688965,226.442780 1587.043945,224.054047 
	C1590.051392,223.959946 1592.251099,224.641281 1594.264282,227.293716 
	C1597.774902,231.919144 1603.548462,232.106934 1607.360840,228.291901 
	C1610.589966,225.060471 1610.477051,220.257202 1607.099976,217.198685 
	C1603.168579,213.638077 1597.617920,214.431900 1593.784058,218.508743 
	C1592.192505,220.201340 1589.590942,221.841736 1587.388916,221.925034 
	C1562.845093,222.853287 1539.730957,229.007843 1517.717041,239.805557 
	C1442.685181,276.608215 1411.091064,364.479370 1446.254395,440.358307 
M1578.660889,399.888641 
	C1584.983276,408.466888 1591.283081,417.061981 1597.637451,425.616577 
	C1601.002319,430.146545 1601.378052,430.155060 1604.739624,425.614105 
	C1615.538086,411.026917 1626.222412,396.354401 1637.120728,381.842499 
	C1639.423950,378.775696 1639.442017,376.545898 1637.027466,373.523804 
	C1626.218994,359.995361 1615.590332,346.322754 1604.975708,332.640900 
	C1603.875488,331.222931 1603.297485,329.399902 1602.477173,327.764832 
	C1600.379761,329.674683 1599.866333,329.868317 1599.575317,330.237335 
	C1587.823730,345.140961 1576.013184,360.000214 1564.505249,375.090240 
	C1563.564575,376.323700 1563.991821,379.622681 1565.007202,381.146515 
	C1569.157227,387.374634 1573.782593,393.285980 1578.660889,399.888641 
M1764.572388,413.200714 
	C1768.357788,399.679535 1770.700073,385.989227 1769.563965,371.886169 
	C1768.631592,373.349396 1768.364746,374.901367 1768.284546,376.462982 
	C1765.710205,426.594727 1743.702271,466.688141 1704.002441,496.581543 
	C1664.416504,526.389038 1619.420410,536.651306 1570.391724,529.462036 
	C1556.160522,527.375244 1542.493774,523.593933 1529.461426,517.463074 
	C1523.393677,514.608521 1517.178711,512.067200 1511.030396,509.383881 
	C1510.809204,509.763184 1510.588013,510.142487 1510.366821,510.521790 
	C1511.437622,511.300903 1512.413330,512.287781 1513.593506,512.827942 
	C1531.108398,520.843994 1548.731934,528.252319 1568.039795,531.333130 
	C1601.652222,536.696533 1634.267578,533.517151 1665.621582,520.594604 
	C1714.806152,500.323212 1748.321411,465.154358 1764.572388,413.200714 
z"/>
<path fill="#565656" opacity="1.000000" stroke="none" 
	d="
M25.531321,1.000000 
	C23.756292,1.786058 21.550787,3.087168 19.261372,3.256981 
	C13.496293,3.684593 7.693367,3.601941 1.452806,3.861913 
	C1.000000,3.015904 1.000000,2.031808 1.000000,1.000000 
	C9.020834,1.000000 17.041737,1.000000 25.531321,1.000000 
z"/>
<path fill="#565656" opacity="1.000000" stroke="none" 
	d="
M1921.000000,3.500025 
	C1915.283081,3.786540 1909.554932,3.720496 1903.854980,3.283972 
	C1901.702637,3.119129 1899.615845,2.097811 1897.249512,1.233443 
	C1904.333374,1.000000 1911.667603,0.947506 1918.998291,1.087080 
	C1919.677368,1.100006 1920.333252,2.333383 1921.000000,3.500025 
z"/>
<path fill="#565656" opacity="1.000000" stroke="none" 
	d="
M1581.129395,248.176422 
	C1611.921143,244.321228 1641.321533,247.725723 1668.556641,262.072937 
	C1715.767090,286.943024 1742.243164,325.966309 1743.319824,379.809540 
	C1744.078735,417.766937 1728.124634,449.294647 1699.833740,474.395111 
	C1675.762817,495.751373 1647.189453,506.484100 1615.295654,508.832489 
	C1613.081421,508.995514 1610.844971,508.853851 1608.618774,508.853851 
	C1608.575317,508.346497 1608.531860,507.839111 1608.488281,507.331757 
	C1610.133057,507.112640 1611.772095,506.768646 1613.423462,506.692932 
	C1643.141968,505.329895 1669.911255,495.712402 1693.245972,477.296326 
	C1752.240356,430.737335 1757.859863,345.712524 1705.392334,291.848175 
	C1673.996704,259.616791 1635.210938,245.935257 1590.705200,249.652634 
	C1543.828247,253.568085 1506.863403,275.322998 1480.911743,314.810425 
	C1468.681152,333.420410 1462.221680,354.118500 1460.930420,376.393097 
	C1460.717896,380.060181 1461.216553,382.940430 1464.913574,385.190094 
	C1469.245117,387.825867 1469.473267,393.360504 1466.134766,396.871338 
	C1462.763306,400.416962 1456.994263,400.456635 1453.588135,396.957642 
	C1450.128174,393.403107 1450.299805,388.120605 1454.519897,385.254852 
	C1457.474365,383.248505 1458.633545,381.024902 1458.846802,377.513611 
	C1461.545532,333.074463 1482.229248,298.717255 1518.057251,273.086182 
	C1536.837769,259.650757 1557.989258,251.924805 1581.129395,248.176422 
M1455.450317,386.845215 
	C1452.465210,391.176514 1452.770508,395.370728 1456.777100,396.623077 
	C1459.027466,397.326477 1462.832275,396.855316 1464.250000,395.337677 
	C1465.621094,393.870056 1465.813110,389.856964 1464.768433,387.897217 
	C1462.968140,384.519440 1459.381104,384.614471 1455.450317,386.845215 
z"/>
<path fill="#565656" opacity="1.000000" stroke="none" 
	d="
M1589.686279,487.065125 
	C1539.206055,483.515656 1496.519653,448.351532 1486.668701,401.702515 
	C1479.206421,366.364685 1488.887573,335.478577 1513.089355,308.953796 
	C1514.147705,307.793732 1515.463379,306.868286 1516.659180,305.833557 
	C1517.013916,306.142303 1517.368530,306.451050 1517.723267,306.759796 
	C1516.458740,308.265869 1515.230469,309.804108 1513.924438,311.273285 
	C1487.163086,341.378143 1479.072021,375.866821 1492.449585,413.880890 
	C1503.670288,445.766144 1526.897339,466.766693 1558.544800,478.340698 
	C1605.550659,495.531525 1659.121582,480.612793 1689.862305,441.917755 
	C1722.825684,400.425049 1720.242188,340.044861 1683.930176,302.183838 
	C1681.613770,299.768646 1679.731323,298.208344 1675.830688,299.682678 
	C1670.861206,301.560913 1665.741943,297.854980 1665.116211,292.890961 
	C1664.556396,288.449127 1667.878906,284.478882 1672.592651,283.957031 
	C1677.851074,283.374878 1682.363037,287.072479 1681.976807,292.401703 
	C1681.715698,296.005341 1683.009399,298.341583 1685.271240,300.780487 
	C1742.247925,362.217712 1714.005981,458.721344 1632.135742,482.633484 
	C1618.414673,486.641022 1604.434814,488.371582 1589.686279,487.065125 
M1668.691528,288.188812 
	C1666.347656,291.162903 1666.525757,294.102814 1669.374878,296.470001 
	C1672.117188,298.748291 1675.629517,298.864929 1677.835571,296.213928 
	C1679.168701,294.611786 1679.725464,291.158173 1678.927246,289.248474 
	C1677.433716,285.675171 1673.930420,285.441772 1670.469360,286.828430 
	C1670.021606,287.007782 1669.646973,287.369141 1668.691528,288.188812 
z"/>
<path fill="#565656" opacity="1.000000" stroke="none" 
	d="
M1538.327881,437.669861 
	C1514.507812,412.647461 1505.858765,383.647034 1516.824707,350.951935 
	C1528.253662,316.876373 1553.455078,297.310852 1588.699341,292.273895 
	C1626.440063,286.880188 1656.788086,300.280731 1678.078369,332.388245 
	C1685.105835,342.986023 1688.543457,355.026703 1689.669800,367.667755 
	C1689.938843,370.686646 1690.641235,372.948120 1693.588379,374.544037 
	C1697.041870,376.414215 1698.282349,379.748474 1697.088867,383.539734 
	C1695.912231,387.277802 1693.030151,389.234009 1689.165649,389.307098 
	C1685.082397,389.384277 1682.073975,387.434418 1680.810425,383.462006 
	C1679.591553,379.630096 1680.841553,376.304718 1684.349121,374.525177 
	C1687.831055,372.758728 1687.767822,370.152924 1687.461182,367.005157 
	C1683.522217,326.557800 1651.024292,299.184265 1615.917358,294.268555 
	C1587.029541,290.223663 1561.284180,297.688965 1539.949097,318.003632 
	C1505.225708,351.065979 1506.185669,405.446106 1541.882690,438.086609 
	C1557.834595,452.672516 1576.677979,460.603943 1598.224731,462.184113 
	C1600.231934,462.331360 1602.219482,462.746155 1605.620483,463.241089 
	C1590.711792,468.385162 1557.991821,455.476776 1538.327881,437.669861 
M1683.583252,378.016449 
	C1683.302002,378.611786 1682.632202,379.372925 1682.803711,379.775177 
	C1683.811768,382.138184 1684.484619,385.573975 1686.300049,386.408264 
	C1688.215454,387.288544 1692.056396,386.433502 1693.606689,384.885315 
	C1694.869141,383.624420 1694.994873,379.324890 1693.807983,377.997986 
	C1692.356201,376.375031 1689.033081,376.292450 1686.465088,375.888306 
	C1685.759033,375.777222 1684.859497,376.896240 1683.583252,378.016449 
z"/>
<path fill="#565656" opacity="1.000000" stroke="none" 
	d="
M1446.101196,440.013367 
	C1411.091064,364.479370 1442.685181,276.608215 1517.717041,239.805557 
	C1539.730957,229.007843 1562.845093,222.853287 1587.388916,221.925034 
	C1589.590942,221.841736 1592.192505,220.201340 1593.784058,218.508743 
	C1597.617920,214.431900 1603.168579,213.638077 1607.099976,217.198685 
	C1610.477051,220.257202 1610.589966,225.060471 1607.360840,228.291901 
	C1603.548462,232.106934 1597.774902,231.919144 1594.264282,227.293716 
	C1592.251099,224.641281 1590.051392,223.959946 1587.043945,224.054047 
	C1510.688965,226.442780 1441.334106,283.282745 1434.481567,361.816864 
	C1430.211426,410.758545 1447.091064,452.537872 1482.696411,486.481506 
	C1488.579834,492.090271 1495.331543,496.787018 1501.668945,501.921417 
	C1503.685303,503.554932 1505.659302,505.240875 1507.239136,507.327576 
	C1480.113525,491.228668 1459.992798,468.700195 1446.101196,440.013367 
M1594.923584,223.350586 
	C1595.710815,227.601501 1598.612427,229.721344 1602.428833,228.457672 
	C1604.567505,227.749573 1607.260376,224.690872 1607.256348,222.696198 
	C1607.252441,220.802109 1604.362793,217.885483 1602.203125,217.250046 
	C1598.356079,216.118149 1595.437988,218.146591 1594.923584,223.350586 
z"/>
<path fill="#565656" opacity="1.000000" stroke="none" 
	d="
M1578.446899,399.601318 
	C1573.782593,393.285980 1569.157227,387.374634 1565.007202,381.146515 
	C1563.991821,379.622681 1563.564575,376.323700 1564.505249,375.090240 
	C1576.013184,360.000214 1587.823730,345.140961 1599.575317,330.237335 
	C1599.866333,329.868317 1600.379761,329.674683 1602.477173,327.764832 
	C1603.297485,329.399902 1603.875488,331.222931 1604.975708,332.640900 
	C1615.590332,346.322754 1626.218994,359.995361 1637.027466,373.523804 
	C1639.442017,376.545898 1639.423950,378.775696 1637.120728,381.842499 
	C1626.222412,396.354401 1615.538086,411.026917 1604.739624,425.614105 
	C1601.378052,430.155060 1601.002319,430.146545 1597.637451,425.616577 
	C1591.283081,417.061981 1584.983276,408.466888 1578.446899,399.601318 
M1618.810425,381.376862 
	C1624.369751,380.011047 1629.929199,378.645233 1636.908447,376.930573 
	C1625.158936,361.931183 1614.346558,348.128021 1603.534180,334.324890 
	C1603.095581,334.536987 1602.656860,334.749115 1602.218140,334.961243 
	C1602.218140,350.545715 1602.188599,366.130280 1602.246094,381.714539 
	C1602.256104,384.445953 1603.958496,384.954132 1606.363037,384.344788 
	C1610.229614,383.364899 1614.127686,382.508881 1618.810425,381.376862 
M1600.079346,350.505798 
	C1600.079346,345.475800 1600.079346,340.445801 1600.079346,335.415833 
	C1599.506226,335.257111 1598.933228,335.098419 1598.360107,334.939728 
	C1587.690430,348.560120 1577.020752,362.180511 1565.836670,376.457611 
	C1568.172485,377.318909 1569.471802,377.942993 1570.841797,378.279266 
	C1578.754028,380.221466 1586.734863,381.906921 1594.586426,384.065002 
	C1599.153320,385.320312 1600.162964,383.511810 1600.107666,379.445129 
	C1599.981079,370.132904 1600.075073,360.817657 1600.079346,350.505798 
M1632.196533,384.815613 
	C1632.878540,383.515045 1633.560669,382.214447 1634.958252,379.549286 
	C1623.864990,382.260773 1614.348022,384.437103 1604.956177,387.061615 
	C1603.702148,387.412048 1602.390259,389.990509 1602.293823,391.608002 
	C1601.957886,397.241516 1602.140747,402.906128 1602.134033,408.558929 
	C1602.128296,413.452240 1602.132935,418.345520 1602.132935,423.238831 
	C1602.633057,423.398132 1603.133179,423.557465 1603.633301,423.716766 
	C1613.022583,410.936340 1622.411865,398.155884 1632.196533,384.815613 
M1569.470825,380.256683 
	C1569.724243,381.810394 1569.484863,383.717834 1570.306885,384.863312 
	C1578.823486,396.729218 1587.502686,408.478577 1596.165039,420.239502 
	C1596.992432,421.362915 1598.010864,422.345734 1598.940552,423.393829 
	C1600.062012,412.863617 1599.925171,402.652466 1600.130615,392.448151 
	C1600.210693,388.470306 1598.462769,386.866028 1594.832275,386.079193 
	C1586.562988,384.286987 1578.351562,382.227875 1569.470825,380.256683 
z"/>
<path fill="#565656" opacity="1.000000" stroke="none" 
	d="
M1764.445068,413.583984 
	C1748.321411,465.154358 1714.806152,500.323212 1665.621582,520.594604 
	C1634.267578,533.517151 1601.652222,536.696533 1568.039795,531.333130 
	C1548.731934,528.252319 1531.108398,520.843994 1513.593506,512.827942 
	C1512.413330,512.287781 1511.437622,511.300903 1510.366821,510.521790 
	C1510.588013,510.142487 1510.809204,509.763184 1511.030396,509.383881 
	C1517.178711,512.067200 1523.393677,514.608521 1529.461426,517.463074 
	C1542.493774,523.593933 1556.160522,527.375244 1570.391724,529.462036 
	C1619.420410,536.651306 1664.416504,526.389038 1704.002441,496.581543 
	C1743.702271,466.688141 1765.710205,426.594727 1768.284546,376.462982 
	C1768.364746,374.901367 1768.631592,373.349396 1769.563965,371.886169 
	C1770.700073,385.989227 1768.357788,399.679535 1764.445068,413.583984 
z"/>
<path fill="#212121" opacity="1.000000" stroke="none" 
	d="
M1455.753296,386.620300 
	C1459.381104,384.614471 1462.968140,384.519440 1464.768433,387.897217 
	C1465.813110,389.856964 1465.621094,393.870056 1464.250000,395.337677 
	C1462.832275,396.855316 1459.027466,397.326477 1456.777100,396.623077 
	C1452.770508,395.370728 1452.465210,391.176514 1455.753296,386.620300 
z"/>
<path fill="#212121" opacity="1.000000" stroke="none" 
	d="
M1668.964966,287.917511 
	C1669.646973,287.369141 1670.021606,287.007782 1670.469360,286.828430 
	C1673.930420,285.441772 1677.433716,285.675171 1678.927246,289.248474 
	C1679.725464,291.158173 1679.168701,294.611786 1677.835571,296.213928 
	C1675.629517,298.864929 1672.117188,298.748291 1669.374878,296.470001 
	C1666.525757,294.102814 1666.347656,291.162903 1668.964966,287.917511 
z"/>
<path fill="#212121" opacity="1.000000" stroke="none" 
	d="
M1683.815918,377.733643 
	C1684.859497,376.896240 1685.759033,375.777222 1686.465088,375.888306 
	C1689.033081,376.292450 1692.356201,376.375031 1693.807983,377.997986 
	C1694.994873,379.324890 1694.869141,383.624420 1693.606689,384.885315 
	C1692.056396,386.433502 1688.215454,387.288544 1686.300049,386.408264 
	C1684.484619,385.573975 1683.811768,382.138184 1682.803711,379.775177 
	C1682.632202,379.372925 1683.302002,378.611786 1683.815918,377.733643 
z"/>
<path fill="#212121" opacity="1.000000" stroke="none" 
	d="
M1594.915283,222.950699 
	C1595.437988,218.146591 1598.356079,216.118149 1602.203125,217.250046 
	C1604.362793,217.885483 1607.252441,220.802109 1607.256348,222.696198 
	C1607.260376,224.690872 1604.567505,227.749573 1602.428833,228.457672 
	C1598.612427,229.721344 1595.710815,227.601501 1594.915283,222.950699 
z"/>
<path fill="#212121" opacity="1.000000" stroke="none" 
	d="
M1618.411377,381.488708 
	C1614.127686,382.508881 1610.229614,383.364899 1606.363037,384.344788 
	C1603.958496,384.954132 1602.256104,384.445953 1602.246094,381.714539 
	C1602.188599,366.130280 1602.218140,350.545715 1602.218140,334.961243 
	C1602.656860,334.749115 1603.095581,334.536987 1603.534180,334.324890 
	C1614.346558,348.128021 1625.158936,361.931183 1636.908447,376.930573 
	C1629.929199,378.645233 1624.369751,380.011047 1618.411377,381.488708 
z"/>
<path fill="#212121" opacity="1.000000" stroke="none" 
	d="
M1600.079346,351.004730 
	C1600.075073,360.817657 1599.981079,370.132904 1600.107666,379.445129 
	C1600.162964,383.511810 1599.153320,385.320312 1594.586426,384.065002 
	C1586.734863,381.906921 1578.754028,380.221466 1570.841797,378.279266 
	C1569.471802,377.942993 1568.172485,377.318909 1565.836670,376.457611 
	C1577.020752,362.180511 1587.690430,348.560120 1598.360107,334.939728 
	C1598.933228,335.098419 1599.506226,335.257111 1600.079346,335.415833 
	C1600.079346,340.445801 1600.079346,345.475800 1600.079346,351.004730 
z"/>
<path fill="#212121" opacity="1.000000" stroke="none" 
	d="
M1631.998779,385.095520 
	C1622.411865,398.155884 1613.022583,410.936340 1603.633301,423.716766 
	C1603.133179,423.557465 1602.633057,423.398132 1602.132935,423.238831 
	C1602.132935,418.345520 1602.128296,413.452240 1602.134033,408.558929 
	C1602.140747,402.906128 1601.957886,397.241516 1602.293823,391.608002 
	C1602.390259,389.990509 1603.702148,387.412048 1604.956177,387.061615 
	C1614.348022,384.437103 1623.864990,382.260773 1634.958252,379.549286 
	C1633.560669,382.214447 1632.878540,383.515045 1631.998779,385.095520 
z"/>
<path fill="#212121" opacity="1.000000" stroke="none" 
	d="
M1569.793701,380.266968 
	C1578.351562,382.227875 1586.562988,384.286987 1594.832275,386.079193 
	C1598.462769,386.866028 1600.210693,388.470306 1600.130615,392.448151 
	C1599.925171,402.652466 1600.062012,412.863617 1598.940552,423.393829 
	C1598.010864,422.345734 1596.992432,421.362915 1596.165039,420.239502 
	C1587.502686,408.478577 1578.823486,396.729218 1570.306885,384.863312 
	C1569.484863,383.717834 1569.724243,381.810394 1569.793701,380.266968 
z"/>
</svg>