<svg id="svg" version="1.1" xmlns="http://www.w3.org/2000/svg" xmlns:xlink="http://www.w3.org/1999/xlink" width="400" height="313.3786848072562" viewBox="0, 0, 400,313.3786848072562"><g id="svgg"><path id="path0" d="M0.000 5.956 L 0.000 11.912 200.000 11.912 L 400.000 11.912 400.000 5.956 L 400.000 0.000 200.000 0.000 L 0.000 0.000 0.000 5.956 M110.972 62.382 C 110.031 63.323,109.979 116.814,110.918 117.663 C 111.851 118.507,165.487 118.454,166.252 117.609 C 167.142 116.626,167.037 63.276,166.144 62.382 C 165.527 61.765,165.099 61.755,138.558 61.755 C 112.017 61.755,111.589 61.765,110.972 62.382 M170.489 62.355 L 169.749 62.954 169.749 90.123 C 169.749 116.656,169.763 117.302,170.358 117.737 C 171.269 118.403,224.656 118.403,225.567 117.737 C 226.161 117.302,226.176 116.656,226.176 90.123 L 226.176 62.954 225.435 62.355 C 224.279 61.418,171.646 61.418,170.489 62.355 M230.364 62.355 L 229.624 62.954 229.624 90.050 C 229.624 112.554,229.697 117.233,230.054 117.663 C 230.662 118.396,284.442 118.468,285.442 117.737 C 286.036 117.302,286.050 116.656,286.050 90.123 L 286.050 62.954 285.310 62.355 C 284.153 61.418,231.521 61.418,230.364 62.355 M110.864 122.830 C 109.974 123.813,110.079 177.163,110.972 178.056 C 111.589 178.674,112.017 178.683,138.558 178.683 C 165.099 178.683,165.527 178.674,166.144 178.056 C 167.085 177.116,167.136 123.625,166.198 122.776 C 165.265 121.932,111.629 121.985,110.864 122.830 M170.358 122.702 C 169.763 123.136,169.749 123.783,169.749 150.316 L 169.749 177.485 170.489 178.084 C 171.646 179.021,224.279 179.021,225.435 178.084 L 226.176 177.485 226.176 150.316 C 226.176 123.783,226.161 123.136,225.567 122.702 C 224.656 122.036,171.269 122.036,170.358 122.702 M230.232 122.702 C 229.638 123.137,229.624 123.783,229.624 150.316 L 229.624 177.485 230.364 178.084 C 231.521 179.021,284.153 179.021,285.310 178.084 L 286.050 177.485 286.050 150.316 C 286.050 123.783,286.036 123.136,285.442 122.702 C 284.530 122.036,231.144 122.036,230.232 122.702 M110.972 183.072 C 110.031 184.012,109.979 237.503,110.918 238.353 C 111.851 239.197,165.487 239.144,166.252 238.298 C 167.142 237.315,167.037 183.965,166.144 183.072 C 165.527 182.455,165.099 182.445,138.558 182.445 C 112.017 182.445,111.589 182.455,110.972 183.072 M170.346 183.105 C 169.402 184.148,169.413 237.736,170.358 238.427 C 171.269 239.093,224.656 239.093,225.567 238.427 C 226.512 237.736,226.523 184.148,225.578 183.105 L 224.981 182.445 197.962 182.445 L 170.944 182.445 170.346 183.105 M230.221 183.105 C 229.277 184.148,229.288 237.736,230.232 238.427 C 231.179 239.119,284.689 239.090,285.382 238.398 C 286.197 237.583,286.240 235.926,286.144 209.455 L 286.050 183.643 285.310 183.044 C 284.594 182.465,283.687 182.445,257.694 182.445 L 230.818 182.445 230.221 183.105 M181.567 262.445 C 180.915 263.098,181.046 276.919,181.710 277.469 C 182.136 277.823,185.469 277.900,200.470 277.900 C 215.471 277.900,218.805 277.823,219.231 277.469 C 219.848 276.957,220.021 263.789,219.425 262.675 C 219.024 261.926,182.310 261.703,181.567 262.445 M192.500 266.940 C 193.340 267.374,193.502 267.374,194.122 266.940 C 194.822 266.449,196.412 266.304,197.310 266.648 C 198.132 266.963,197.868 267.715,196.865 267.915 C 195.663 268.156,195.676 268.421,196.912 268.887 C 197.998 269.297,197.722 270.219,196.513 270.219 C 195.582 270.219,195.829 270.776,196.862 271.002 C 197.976 271.247,198.366 271.743,197.767 272.152 C 196.969 272.697,192.076 272.159,191.486 271.462 C 190.811 270.664,190.065 270.677,189.806 271.491 C 189.307 273.064,188.561 272.009,188.464 269.596 C 188.340 266.485,189.783 265.535,192.500 266.940 M201.980 266.818 C 202.910 267.308,203.141 267.734,202.931 268.571 C 202.827 268.987,202.897 269.279,203.101 269.279 C 203.292 269.279,203.448 268.926,203.448 268.495 C 203.448 266.779,206.133 265.758,207.677 266.887 C 208.320 267.357,207.598 268.025,206.447 268.025 C 205.633 268.025,205.894 268.491,206.925 268.880 C 208.012 269.291,207.912 269.766,206.631 270.275 L 205.799 270.606 206.796 270.961 C 207.344 271.157,207.904 271.430,208.041 271.569 C 208.838 272.378,204.993 272.733,203.954 271.946 C 203.440 271.557,203.276 271.559,202.709 271.956 C 201.197 273.014,198.775 271.876,199.629 270.508 C 199.902 270.071,199.921 269.717,199.694 269.292 C 198.755 267.538,200.257 265.911,201.980 266.818 M212.670 266.648 C 213.299 266.889,213.311 267.599,212.693 267.945 C 212.403 268.108,212.129 268.935,211.986 270.077 C 211.663 272.666,210.881 272.686,210.652 270.111 C 210.542 268.877,210.312 268.149,209.947 267.882 C 208.605 266.901,210.772 265.919,212.670 266.648 M192.956 269.684 C 192.822 269.994,192.800 270.334,192.908 270.442 C 193.226 270.760,193.483 270.313,193.336 269.695 C 193.207 269.148,193.190 269.147,192.956 269.684 M0.000 306.426 L 0.000 313.480 200.000 313.480 L 400.000 313.480 400.000 306.426 L 400.000 299.373 200.000 299.373 L 0.000 299.373 0.000 306.426 " stroke="none" fill="#f3f3db" fill-rule="evenodd"></path><path id="path1" d="M0.000 155.643 L 0.000 299.373 200.000 299.373 L 400.000 299.373 400.000 155.643 L 400.000 11.912 200.000 11.912 L 0.000 11.912 0.000 155.643 M166.144 62.382 C 167.037 63.276,167.142 116.626,166.252 117.609 C 165.487 118.454,111.851 118.507,110.918 117.663 C 109.979 116.814,110.031 63.323,110.972 62.382 C 111.589 61.765,112.017 61.755,138.558 61.755 C 165.099 61.755,165.527 61.765,166.144 62.382 M225.435 62.355 L 226.176 62.954 226.176 90.123 C 226.176 116.656,226.161 117.302,225.567 117.737 C 224.656 118.403,171.269 118.403,170.358 117.737 C 169.763 117.302,169.749 116.656,169.749 90.123 L 169.749 62.954 170.489 62.355 C 171.646 61.418,224.279 61.418,225.435 62.355 M285.310 62.355 L 286.050 62.954 286.050 90.123 C 286.050 116.656,286.036 117.302,285.442 117.737 C 284.442 118.468,230.662 118.396,230.054 117.663 C 229.697 117.233,229.624 112.554,229.624 90.050 L 229.624 62.954 230.364 62.355 C 231.521 61.418,284.153 61.418,285.310 62.355 M166.198 122.776 C 167.136 123.625,167.085 177.116,166.144 178.056 C 165.527 178.674,165.099 178.683,138.558 178.683 C 112.017 178.683,111.589 178.674,110.972 178.056 C 110.079 177.163,109.974 123.813,110.864 122.830 C 111.629 121.985,165.265 121.932,166.198 122.776 M225.567 122.702 C 226.161 123.136,226.176 123.783,226.176 150.316 L 226.176 177.485 225.435 178.084 C 224.279 179.021,171.646 179.021,170.489 178.084 L 169.749 177.485 169.749 150.316 C 169.749 123.783,169.763 123.136,170.358 122.702 C 171.269 122.036,224.656 122.036,225.567 122.702 M285.442 122.702 C 286.036 123.136,286.050 123.783,286.050 150.316 L 286.050 177.485 285.310 178.084 C 284.153 179.021,231.521 179.021,230.364 178.084 L 229.624 177.485 229.624 150.316 C 229.624 123.783,229.638 123.137,230.232 122.702 C 231.144 122.036,284.530 122.036,285.442 122.702 M166.144 183.072 C 167.037 183.965,167.142 237.315,166.252 238.298 C 165.487 239.144,111.851 239.197,110.918 238.353 C 109.979 237.503,110.031 184.012,110.972 183.072 C 111.589 182.455,112.017 182.445,138.558 182.445 C 165.099 182.445,165.527 182.455,166.144 183.072 M225.578 183.105 C 226.523 184.148,226.512 237.736,225.567 238.427 C 224.656 239.093,171.269 239.093,170.358 238.427 C 169.413 237.736,169.402 184.148,170.346 183.105 L 170.944 182.445 197.962 182.445 L 224.981 182.445 225.578 183.105 M285.310 183.044 L 286.050 183.643 286.144 209.455 C 286.240 235.926,286.197 237.583,285.382 238.398 C 284.689 239.090,231.179 239.119,230.232 238.427 C 229.288 237.736,229.277 184.148,230.221 183.105 L 230.818 182.445 257.694 182.445 C 283.687 182.445,284.594 182.465,285.310 183.044 M219.425 262.675 C 220.021 263.789,219.848 276.957,219.231 277.469 C 218.805 277.823,215.471 277.900,200.470 277.900 C 185.469 277.900,182.136 277.823,181.710 277.469 C 181.046 276.919,180.915 263.098,181.567 262.445 C 182.310 261.703,219.024 261.926,219.425 262.675 M188.916 266.856 C 188.141 267.423,188.282 271.884,189.080 272.036 C 189.387 272.095,189.686 271.871,189.806 271.491 C 190.065 270.677,190.811 270.664,191.486 271.462 C 192.076 272.159,196.969 272.697,197.767 272.152 C 198.366 271.743,197.976 271.247,196.862 271.002 C 195.829 270.776,195.582 270.219,196.513 270.219 C 197.722 270.219,197.998 269.297,196.912 268.887 C 195.676 268.421,195.663 268.156,196.865 267.915 C 197.868 267.715,198.132 266.963,197.310 266.648 C 196.412 266.304,194.822 266.449,194.122 266.940 C 193.502 267.374,193.340 267.374,192.500 266.940 C 191.367 266.354,189.657 266.314,188.916 266.856 M200.070 266.946 C 199.319 267.471,199.181 268.335,199.694 269.292 C 199.921 269.717,199.902 270.071,199.629 270.508 C 198.775 271.876,201.197 273.014,202.709 271.956 C 203.276 271.559,203.440 271.557,203.954 271.946 C 204.993 272.733,208.838 272.378,208.041 271.569 C 207.904 271.430,207.344 271.157,206.796 270.961 L 205.799 270.606 206.631 270.275 C 207.912 269.766,208.012 269.291,206.925 268.880 C 205.894 268.491,205.633 268.025,206.447 268.025 C 207.598 268.025,208.320 267.357,207.677 266.887 C 206.133 265.758,203.448 266.779,203.448 268.495 C 203.448 268.926,203.292 269.279,203.101 269.279 C 202.897 269.279,202.827 268.987,202.931 268.571 C 203.320 267.023,201.464 265.969,200.070 266.946 M209.796 266.665 C 209.244 266.888,209.310 267.416,209.947 267.882 C 210.312 268.149,210.542 268.877,210.652 270.111 C 210.881 272.686,211.663 272.666,211.986 270.077 C 212.129 268.935,212.403 268.108,212.693 267.945 C 214.251 267.073,211.643 265.920,209.796 266.665 M189.720 269.966 C 189.438 270.248,189.251 270.254,188.987 269.990 C 188.791 269.794,188.726 269.388,188.841 269.088 C 189.037 268.577,189.086 268.575,189.575 269.064 C 189.984 269.473,190.016 269.671,189.720 269.966 M194.848 269.807 C 194.640 270.347,194.613 270.348,194.319 269.825 C 193.942 269.152,194.275 268.445,194.748 268.917 C 194.924 269.093,194.969 269.493,194.848 269.807 M205.016 269.417 C 205.016 269.666,204.875 269.956,204.702 270.063 C 204.530 270.169,204.389 269.966,204.389 269.611 C 204.389 269.256,204.530 268.966,204.702 268.966 C 204.875 268.966,205.016 269.169,205.016 269.417 M191.706 269.613 C 191.994 270.080,191.660 270.334,191.059 270.104 C 190.782 269.997,190.644 269.768,190.751 269.595 C 191.005 269.184,191.445 269.192,191.706 269.613 M193.288 270.453 C 192.945 270.795,192.711 270.251,192.956 269.684 C 193.190 269.147,193.207 269.148,193.336 269.695 C 193.411 270.011,193.389 270.352,193.288 270.453 " stroke="none" fill="#44e3d3" fill-rule="evenodd"></path><path id="path2" d="M188.841 269.088 C 188.726 269.388,188.791 269.794,188.987 269.990 C 189.251 270.254,189.438 270.248,189.720 269.966 C 190.016 269.671,189.984 269.473,189.575 269.064 C 189.086 268.575,189.037 268.577,188.841 269.088 M194.219 268.936 C 194.104 269.122,194.149 269.522,194.319 269.825 C 194.613 270.348,194.640 270.347,194.848 269.807 C 195.101 269.151,194.554 268.394,194.219 268.936 M204.389 269.611 C 204.389 269.966,204.530 270.169,204.702 270.063 C 204.875 269.956,205.016 269.666,205.016 269.417 C 205.016 269.169,204.875 268.966,204.702 268.966 C 204.530 268.966,204.389 269.256,204.389 269.611 M190.751 269.595 C 190.644 269.768,190.782 269.997,191.059 270.104 C 191.660 270.334,191.994 270.080,191.706 269.613 C 191.445 269.192,191.005 269.184,190.751 269.595 " stroke="none" fill="#04232f" fill-rule="evenodd"></path></g></svg>