<svg version="1.1" id="Layer_1" xmlns="http://www.w3.org/2000/svg" xmlns:xlink="http://www.w3.org/1999/xlink" x="0px" y="0px"
	 width="100%" viewBox="0 0 769 105" enable-background="new 0 0 769 105" xml:space="preserve">
<path fill="#FEFEFE" opacity="1.000000" stroke="none" 
	d="
M269.000000,1.000000 
	C286.354218,1.000000 303.708466,1.000000 321.607300,1.463315 
	C322.101257,36.617752 322.050629,71.308876 322.000000,106.000000 
	C304.645782,106.000000 287.291534,106.000000 269.837708,105.637482 
	C269.511017,103.338852 269.099701,101.403893 269.087555,99.466431 
	C269.022491,89.064926 269.056824,78.662796 269.056824,68.311646 
	C250.202850,68.311646 231.893967,68.311646 213.000000,68.311646 
	C213.000000,81.127991 213.000000,93.563995 213.000000,106.000000 
	C195.645767,106.000000 178.291550,106.000000 160.868698,105.667183 
	C160.571381,103.208099 160.148315,101.082314 160.143127,98.955505 
	C160.063339,66.303749 160.037994,33.651859 160.000000,1.000000 
	C177.354233,1.000000 194.708450,1.000000 212.660828,1.453116 
	C213.258972,12.951375 213.258972,23.996519 213.258972,35.082115 
	C232.303391,35.082115 250.499237,35.082115 269.000000,35.082115 
	C269.000000,23.545040 269.000000,12.272520 269.000000,1.000000 
z"/>
<path fill="#FEFEFE" opacity="1.000000" stroke="none" 
	d="
M497.000000,1.000000 
	C542.020874,1.000000 587.041809,1.000000 632.494019,1.467370 
	C632.925354,10.545165 632.925354,19.155590 632.925354,28.264473 
	C605.042603,28.264473 577.667114,28.264473 550.281677,28.264473 
	C550.281677,32.824032 550.281677,36.873013 550.281677,40.974312 
	C572.871704,31.032581 595.700928,31.534658 618.689026,37.876873 
	C630.489929,41.132648 637.915039,48.873444 639.634277,61.245487 
	C641.468506,74.445396 638.992310,86.671738 627.191345,94.296379 
	C620.379211,98.697731 612.094849,100.812981 604.496094,104.011719 
	C603.269104,104.528214 602.162354,105.330055 601.000000,106.000000 
	C578.312439,106.000000 555.624878,106.000000 532.693970,105.640839 
	C531.216797,104.860535 529.968323,104.477699 528.751648,104.011925 
	C521.652344,101.294113 514.201477,99.227051 507.552460,95.665115 
	C498.181519,90.645035 493.693848,80.140564 495.803864,70.843506 
	C512.729065,70.843506 529.704285,70.828270 546.679260,70.879906 
	C547.740662,70.883133 549.138123,71.072411 549.809998,71.744324 
	C558.881775,80.816917 569.545532,78.868439 580.005859,75.646812 
	C582.248718,74.956039 584.704224,71.078415 584.848633,68.542831 
	C584.992798,66.011154 582.987244,62.486053 580.823914,60.861847 
	C574.986206,56.478897 558.176086,56.364960 553.285645,61.559437 
	C548.820801,66.301888 544.101379,65.795944 538.954834,65.813042 
	C527.629639,65.850677 516.304260,65.824722 504.978973,65.824722 
	C502.359344,65.824722 499.739685,65.824730 497.000000,65.824730 
	C497.000000,43.865814 497.000000,22.432907 497.000000,1.000000 
z"/>
<path fill="#FDFDFD" opacity="1.000000" stroke="none" 
	d="
M501.000000,106.000000 
	C481.979095,106.000000 462.958221,106.000000 443.741760,105.693878 
	C441.941315,102.320175 440.161591,99.328377 438.788605,96.160286 
	C437.747650,93.758408 436.524689,92.608330 433.658997,92.638542 
	C418.549622,92.797829 403.437683,92.700409 388.326721,92.739265 
	C387.226501,92.742096 385.410675,92.790703 385.142609,93.375252 
	C383.250214,97.501785 381.675842,101.774162 380.000000,106.000000 
	C362.645782,106.000000 345.291534,106.000000 327.729126,105.631302 
	C327.813324,103.337563 327.669067,101.207397 328.462799,99.517899 
	C343.141937,68.272652 357.944458,37.085369 372.665497,5.859732 
	C373.371246,4.362821 373.566833,2.625411 374.000000,1.000000 
	C399.020905,1.000000 424.041779,1.000000 449.541138,1.362980 
	C466.463257,34.416214 482.926178,67.096802 499.300323,99.821831 
	C500.237854,101.695602 500.450165,103.932243 501.000000,106.000000 
M417.295227,61.837288 
	C419.170227,61.837288 421.045258,61.837288 423.634979,61.837288 
	C419.225830,51.952625 415.205750,42.940228 410.777191,33.011997 
	C406.425049,43.106152 402.504883,52.198498 398.349152,61.837120 
	C405.058197,61.837120 410.702362,61.837120 417.295227,61.837288 
z"/>
<path fill="#FEFEFE" opacity="1.000000" stroke="none" 
	d="
M770.000000,38.000000 
	C770.000000,47.354229 770.000000,56.708454 769.690674,66.106461 
	C767.420959,66.378860 765.460876,66.801620 763.499939,66.806221 
	C742.888184,66.854584 722.276184,66.836121 701.664307,66.836128 
	C699.909119,66.836128 698.153992,66.836128 696.483398,66.836128 
	C696.483398,70.082710 696.483398,72.635994 696.483398,75.489670 
	C698.155396,75.489670 699.471619,75.489670 700.787842,75.489677 
	C722.397095,75.489784 744.006348,75.499367 765.615601,75.468925 
	C767.077271,75.466866 768.538513,75.163322 770.000000,75.000000 
	C770.000000,85.304459 770.000000,95.608917 770.000000,106.000000 
	C728.312500,106.000000 686.624878,106.000000 644.790649,105.600067 
	C644.412781,103.937019 643.980713,102.674026 643.979919,101.410774 
	C643.959473,67.940536 643.983521,34.470264 644.000000,1.000000 
	C685.881104,1.000000 727.762268,1.000000 770.000000,1.000000 
	C770.000000,10.351206 770.000000,19.706945 769.541382,29.421356 
	C744.852661,29.780029 720.622498,29.780029 696.421143,29.780029 
	C696.421143,33.022034 696.421143,35.427952 696.421143,38.163872 
	C698.518005,38.163872 700.323486,38.163872 702.128967,38.163872 
	C722.434448,38.163876 742.739990,38.169125 763.045471,38.156673 
	C765.363647,38.155254 767.681824,38.054630 770.000000,38.000000 
z"/>
<path fill="#FEFEFE" opacity="1.000000" stroke="none" 
	d="
M54.000000,106.000000 
	C36.360973,106.000000 18.721943,106.000000 1.041458,106.000000 
	C1.041458,71.082436 1.041458,36.164810 1.041458,1.000000 
	C41.353889,1.000000 81.708290,1.000000 122.293518,1.353318 
	C125.979568,2.796468 129.456207,3.823154 132.885971,4.987943 
	C143.279892,8.517841 151.524277,14.862244 153.608292,25.922131 
	C155.053497,33.591942 154.697327,41.789032 153.932236,49.632137 
	C153.233551,56.794750 148.954590,62.541782 143.084183,66.897980 
	C135.052383,72.858040 125.759323,75.608757 116.045776,75.938416 
	C98.409935,76.536949 80.747292,76.347832 63.095772,76.479324 
	C60.137634,76.501366 57.179192,76.482437 54.000000,76.482437 
	C54.000000,86.684044 54.000000,96.342026 54.000000,106.000000 
M100.487923,37.669121 
	C100.018272,33.620979 97.392105,31.923182 93.673912,31.850060 
	C83.057716,31.641277 72.438683,31.573864 61.820637,31.463589 
	C59.256977,31.436964 56.692802,31.459631 54.250206,31.459631 
	C54.250206,36.487087 54.250206,40.727570 54.250206,45.055927 
	C67.320343,45.055927 80.083588,45.103115 92.846130,45.029652 
	C97.158188,45.004829 100.222252,43.225426 100.487923,37.669121 
z"/>
<path fill="#232323" opacity="1.000000" stroke="none" 
	d="
M54.468658,106.000000 
	C54.000000,96.342026 54.000000,86.684044 54.000000,76.482437 
	C57.179192,76.482437 60.137634,76.501366 63.095772,76.479324 
	C80.747292,76.347832 98.409935,76.536949 116.045776,75.938416 
	C125.759323,75.608757 135.052383,72.858040 143.084183,66.897980 
	C148.954590,62.541782 153.233551,56.794750 153.932236,49.632137 
	C154.697327,41.789032 155.053497,33.591942 153.608292,25.922131 
	C151.524277,14.862244 143.279892,8.517841 132.885971,4.987943 
	C129.456207,3.823154 125.979568,2.796468 122.762177,1.353318 
	C135.020889,1.000000 147.041794,1.000000 159.531342,1.000000 
	C160.037994,33.651859 160.063339,66.303749 160.143127,98.955505 
	C160.148315,101.082314 160.571381,103.208099 160.400040,105.667183 
	C124.979103,106.000000 89.958214,106.000000 54.468658,106.000000 
z"/>
<path fill="#262626" opacity="1.000000" stroke="none" 
	d="
M501.468658,106.000000 
	C500.450165,103.932243 500.237854,101.695602 499.300323,99.821831 
	C482.926178,67.096802 466.463257,34.416214 450.009827,1.362980 
	C465.354218,1.000000 480.708466,1.000000 496.531342,1.000000 
	C497.000000,22.432907 497.000000,43.865814 497.000000,65.824730 
	C499.739685,65.824730 502.359344,65.824722 504.978973,65.824722 
	C516.304260,65.824722 527.629639,65.850677 538.954834,65.813042 
	C544.101379,65.795944 548.820801,66.301888 553.285645,61.559437 
	C558.176086,56.364960 574.986206,56.478897 580.823914,60.861847 
	C582.987244,62.486053 584.992798,66.011154 584.848633,68.542831 
	C584.704224,71.078415 582.248718,74.956039 580.005859,75.646812 
	C569.545532,78.868439 558.881775,80.816917 549.809998,71.744324 
	C549.138123,71.072411 547.740662,70.883133 546.679260,70.879906 
	C529.704285,70.828270 512.729065,70.843506 495.803864,70.843506 
	C493.693848,80.140564 498.181519,90.645035 507.552460,95.665115 
	C514.201477,99.227051 521.652344,101.294113 528.751648,104.011925 
	C529.968323,104.477699 531.216797,104.860535 532.225281,105.640839 
	C521.979126,106.000000 511.958221,106.000000 501.468658,106.000000 
z"/>
<path fill="#232323" opacity="1.000000" stroke="none" 
	d="
M373.531342,1.000000 
	C373.566833,2.625411 373.371246,4.362821 372.665497,5.859732 
	C357.944458,37.085369 343.141937,68.272652 328.462799,99.517899 
	C327.669067,101.207397 327.813324,103.337563 327.260468,105.631302 
	C325.611115,106.000000 324.222198,106.000000 322.416656,106.000000 
	C322.050629,71.308876 322.101257,36.617752 322.075928,1.463315 
	C339.020905,1.000000 356.041779,1.000000 373.531342,1.000000 
z"/>
<path fill="#232323" opacity="1.000000" stroke="none" 
	d="
M213.468658,106.000000 
	C213.000000,93.563995 213.000000,81.127991 213.000000,68.311646 
	C231.893967,68.311646 250.202850,68.311646 269.056824,68.311646 
	C269.056824,78.662796 269.022491,89.064926 269.087555,99.466431 
	C269.099701,101.403893 269.511017,103.338852 269.369080,105.637482 
	C250.645767,106.000000 232.291550,106.000000 213.468658,106.000000 
z"/>
<path fill="#232323" opacity="1.000000" stroke="none" 
	d="
M268.531342,1.000000 
	C269.000000,12.272520 269.000000,23.545040 269.000000,35.082115 
	C250.499237,35.082115 232.303391,35.082115 213.258972,35.082115 
	C213.258972,23.996519 213.258972,12.951375 213.129486,1.453116 
	C231.354233,1.000000 249.708450,1.000000 268.531342,1.000000 
z"/>
<path fill="#272727" opacity="1.000000" stroke="none" 
	d="
M643.541931,1.000000 
	C643.983521,34.470264 643.959473,67.940536 643.979919,101.410774 
	C643.980713,102.674026 644.412781,103.937019 644.321960,105.600067 
	C629.979126,106.000000 615.958191,106.000000 601.468628,106.000000 
	C602.162354,105.330055 603.269104,104.528214 604.496094,104.011719 
	C612.094849,100.812981 620.379211,98.697731 627.191345,94.296379 
	C638.992310,86.671738 641.468506,74.445396 639.634277,61.245487 
	C637.915039,48.873444 630.489929,41.132648 618.689026,37.876873 
	C595.700928,31.534658 572.871704,31.032581 550.281677,40.974312 
	C550.281677,36.873013 550.281677,32.824032 550.281677,28.264473 
	C577.667114,28.264473 605.042603,28.264473 632.925354,28.264473 
	C632.925354,19.155590 632.925354,10.545165 632.962646,1.467370 
	C636.361267,1.000000 639.722595,1.000000 643.541931,1.000000 
z"/>
<path fill="#232323" opacity="1.000000" stroke="none" 
	d="
M380.468628,106.000000 
	C381.675842,101.774162 383.250214,97.501785 385.142609,93.375252 
	C385.410675,92.790703 387.226501,92.742096 388.326721,92.739265 
	C403.437683,92.700409 418.549622,92.797829 433.658997,92.638542 
	C436.524689,92.608330 437.747650,93.758408 438.788605,96.160286 
	C440.161591,99.328377 441.941315,102.320175 443.273102,105.693878 
	C422.312439,106.000000 401.624878,106.000000 380.468628,106.000000 
z"/>
<path fill="#222222" opacity="1.000000" stroke="none" 
	d="
M770.000000,37.555840 
	C767.681824,38.054630 765.363647,38.155254 763.045471,38.156673 
	C742.739990,38.169125 722.434448,38.163876 702.128967,38.163872 
	C700.323486,38.163872 698.518005,38.163872 696.421143,38.163872 
	C696.421143,35.427952 696.421143,33.022034 696.421143,29.780029 
	C720.622498,29.780029 744.852661,29.780029 769.541382,29.890015 
	C770.000000,32.370556 770.000000,34.741116 770.000000,37.555840 
z"/>
<path fill="#222222" opacity="1.000000" stroke="none" 
	d="
M770.000000,74.555832 
	C768.538513,75.163322 767.077271,75.466866 765.615601,75.468925 
	C744.006348,75.499367 722.397095,75.489784 700.787842,75.489677 
	C699.471619,75.489670 698.155396,75.489670 696.483398,75.489670 
	C696.483398,72.635994 696.483398,70.082710 696.483398,66.836128 
	C698.153992,66.836128 699.909119,66.836128 701.664307,66.836128 
	C722.276184,66.836121 742.888184,66.854584 763.499939,66.806221 
	C765.460876,66.801620 767.420959,66.378860 769.690674,66.575119 
	C770.000000,69.370560 770.000000,71.741112 770.000000,74.555832 
z"/>
<path fill="#2A2A2A" opacity="1.000000" stroke="none" 
	d="
M416.820862,61.837204 
	C410.702362,61.837120 405.058197,61.837120 398.349152,61.837120 
	C402.504883,52.198498 406.425049,43.106152 410.777191,33.011997 
	C415.205750,42.940228 419.225830,51.952625 423.634979,61.837288 
	C421.045258,61.837288 419.170227,61.837288 416.820862,61.837204 
z"/>
<path fill="#282828" opacity="1.000000" stroke="none" 
	d="
M100.525620,38.043926 
	C100.222252,43.225426 97.158188,45.004829 92.846130,45.029652 
	C80.083588,45.103115 67.320343,45.055927 54.250206,45.055927 
	C54.250206,40.727570 54.250206,36.487087 54.250206,31.459631 
	C56.692802,31.459631 59.256977,31.436964 61.820637,31.463589 
	C72.438683,31.573864 83.057716,31.641277 93.673912,31.850060 
	C97.392105,31.923182 100.018272,33.620979 100.525620,38.043926 
z"/>
</svg>