<svg id="svg" version="1.1" xmlns="http://www.w3.org/2000/svg" xmlns:xlink="http://www.w3.org/1999/xlink" width="400" height="377.77777777777777" viewBox="0, 0, 400,377.77777777777777"><g id="svgg"><path id="path0" d="M0.000 12.098 L 0.000 24.197 200.000 24.197 L 400.000 24.197 400.000 12.098 L 400.000 0.000 200.000 0.000 L 0.000 0.000 0.000 12.098 M111.105 75.483 C 110.148 76.636,110.356 129.571,111.320 130.276 C 112.417 131.078,164.710 131.078,165.807 130.276 C 166.771 129.571,166.979 76.636,166.022 75.483 C 165.548 74.913,163.161 74.858,138.563 74.858 C 113.966 74.858,111.579 74.913,111.105 75.483 M170.586 75.312 C 169.688 76.210,169.959 129.937,170.864 130.421 C 172.113 131.090,224.242 130.951,225.164 130.276 C 226.188 129.528,226.528 77.288,225.519 75.749 L 224.935 74.858 197.988 74.858 C 177.532 74.858,170.930 74.968,170.586 75.312 M230.462 75.452 C 229.557 76.357,229.557 129.314,230.462 130.219 C 231.450 131.207,284.299 131.113,285.197 130.121 C 286.129 129.091,286.160 76.384,285.228 75.452 C 284.323 74.547,231.367 74.547,230.462 75.452 M112.122 135.295 C 111.274 135.481,110.937 135.828,110.694 136.765 C 110.138 138.913,110.502 190.048,111.078 190.624 C 111.801 191.348,165.325 191.347,166.049 190.624 C 166.931 189.742,166.753 136.724,165.866 135.836 C 165.172 135.142,115.113 134.638,112.122 135.295 M171.834 135.240 C 170.072 135.685,170.132 134.680,170.132 163.383 L 170.132 190.567 171.122 190.943 C 172.728 191.554,224.783 191.248,225.407 190.624 C 226.130 189.900,226.130 136.376,225.407 135.652 C 224.915 135.160,173.711 134.766,171.834 135.240 M231.569 135.240 C 229.807 135.685,229.868 134.693,229.868 163.176 L 229.868 190.153 230.758 190.736 C 232.298 191.745,284.537 191.405,285.286 190.381 C 286.088 189.285,286.088 136.992,285.286 135.895 C 284.766 135.184,234.231 134.568,231.569 135.240 M111.320 196.000 C 110.356 196.705,110.148 249.640,111.105 250.793 C 111.902 251.753,165.225 251.753,166.022 250.792 C 166.979 249.639,166.771 196.705,165.807 196.000 C 164.710 195.198,112.417 195.198,111.320 196.000 M170.794 195.871 C 169.951 196.363,169.748 250.126,170.586 250.964 C 170.930 251.308,177.532 251.418,197.988 251.418 L 224.935 251.418 225.519 250.527 C 226.528 248.988,226.188 196.748,225.164 196.000 C 224.249 195.331,171.934 195.208,170.794 195.871 M230.708 196.052 L 229.868 196.640 229.868 223.298 C 229.868 240.950,230.000 250.202,230.259 250.686 C 230.873 251.834,284.817 251.834,285.431 250.686 C 285.690 250.202,285.822 240.950,285.822 223.298 L 285.822 196.640 284.982 196.052 C 284.241 195.533,281.034 195.463,257.845 195.463 C 234.656 195.463,231.449 195.533,230.708 196.052 M181.730 275.485 C 181.368 275.847,181.422 289.314,181.788 289.890 C 182.026 290.265,186.042 290.345,200.592 290.268 L 219.093 290.170 219.093 282.798 L 219.093 275.425 200.539 275.327 C 190.335 275.273,181.871 275.344,181.730 275.485 M192.211 279.380 C 192.842 279.620,193.560 279.607,194.324 279.340 C 194.961 279.118,196.074 279.047,196.797 279.183 L 198.113 279.430 197.909 281.531 C 197.790 282.755,197.870 283.832,198.101 284.110 C 199.212 285.449,192.985 285.926,191.414 284.622 C 191.030 284.303,190.664 284.323,189.961 284.699 C 188.610 285.422,188.091 284.723,188.091 282.181 C 188.091 279.297,189.490 278.346,192.211 279.380 M203.214 279.486 C 203.629 279.453,204.588 279.317,205.344 279.185 C 206.117 279.050,207.061 279.127,207.500 279.362 C 208.076 279.670,208.726 279.661,209.976 279.327 C 212.436 278.669,213.972 279.355,213.081 280.714 C 212.748 281.222,212.476 282.121,212.476 282.712 C 212.476 283.304,212.240 284.111,211.950 284.507 C 211.165 285.581,210.208 284.629,210.208 282.773 C 210.208 281.164,208.960 279.839,208.110 280.545 C 207.655 280.922,207.626 283.496,208.068 284.211 C 208.780 285.364,200.902 285.907,199.565 284.798 C 197.722 283.267,199.548 278.559,201.701 279.290 C 202.117 279.431,202.798 279.520,203.214 279.486 M0.000 345.274 L 0.000 378.072 200.000 378.072 L 400.000 378.072 400.000 345.274 L 400.000 312.476 200.000 312.476 L 0.000 312.476 0.000 345.274 " stroke="none" fill="#f3f3db" fill-rule="evenodd"></path><path id="path1" d="M0.000 168.431 L 0.000 311.720 200.000 311.720 L 400.000 311.720 400.000 168.431 L 400.000 25.142 200.000 25.142 L 0.000 25.142 0.000 168.431 M146.621 42.867 C 147.183 43.215,147.210 44.859,146.659 45.200 C 146.433 45.339,145.666 44.889,144.954 44.199 C 142.706 42.020,142.367 42.874,142.355 50.759 L 142.344 57.278 140.832 57.278 L 139.319 57.278 139.244 50.694 C 139.156 42.932,138.383 41.290,136.309 44.455 C 135.980 44.958,135.459 45.369,135.152 45.369 C 134.416 45.369,134.401 43.246,135.134 42.835 C 135.806 42.459,146.006 42.488,146.621 42.867 M153.308 42.633 C 153.537 42.801,153.686 45.680,153.686 49.905 C 153.686 54.131,153.537 57.010,153.308 57.178 C 152.741 57.594,150.930 57.523,150.652 57.073 C 150.184 56.315,150.470 42.958,150.961 42.646 C 151.540 42.278,152.815 42.271,153.308 42.633 M177.957 42.722 C 178.339 42.722,178.084 43.188,177.207 44.091 C 175.797 45.543,175.047 45.526,175.047 44.042 C 175.047 43.072,176.049 42.250,176.874 42.543 C 177.151 42.642,177.638 42.722,177.957 42.722 M187.142 42.909 C 187.653 43.225,187.630 44.880,187.109 45.202 C 186.882 45.343,186.211 44.927,185.618 44.279 C 183.476 41.934,183.218 42.559,182.987 50.662 L 182.798 57.278 181.285 57.278 L 179.773 57.278 179.890 51.229 C 179.985 46.303,179.897 44.978,179.417 44.097 C 179.093 43.501,178.828 42.961,178.828 42.896 C 178.828 42.411,186.355 42.422,187.142 42.909 M194.865 42.934 C 195.190 43.259,195.709 44.407,196.020 45.486 C 196.330 46.565,197.116 49.234,197.767 51.418 C 199.278 56.482,199.328 57.239,198.166 57.404 C 196.180 57.685,195.463 57.191,195.463 55.541 C 195.463 54.408,195.231 53.800,194.575 53.216 C 193.814 52.538,193.742 52.276,194.078 51.388 C 194.965 49.038,193.165 46.106,191.668 47.461 C 190.771 48.273,190.752 47.997,191.522 45.343 C 192.339 42.532,193.573 41.642,194.865 42.934 M222.191 42.722 C 222.573 42.722,222.318 43.188,221.441 44.091 C 220.031 45.543,219.282 45.526,219.282 44.042 C 219.282 43.072,220.284 42.250,221.108 42.543 C 221.385 42.642,221.873 42.722,222.191 42.722 M231.376 42.909 C 231.887 43.225,231.864 44.880,231.344 45.202 C 231.116 45.343,230.445 44.927,229.853 44.279 C 227.711 41.934,227.453 42.559,227.221 50.662 L 227.032 57.278 225.520 57.278 L 224.008 57.278 224.008 50.776 C 224.008 46.078,223.876 44.142,223.535 43.800 C 222.392 42.655,223.206 42.413,227.690 42.562 C 229.507 42.623,231.166 42.779,231.376 42.909 M253.631 42.680 C 254.024 42.929,254.045 43.185,253.725 43.783 C 252.365 46.326,253.813 50.276,255.638 48.998 C 256.988 48.052,257.467 48.240,257.467 49.716 C 257.467 51.192,256.988 51.381,255.638 50.435 C 253.707 49.083,252.236 53.878,253.867 56.207 C 254.490 57.096,253.884 57.451,251.724 57.462 C 250.252 57.469,250.228 57.349,250.228 49.905 C 250.228 46.172,250.336 42.943,250.467 42.731 C 250.756 42.263,252.918 42.228,253.631 42.680 M259.508 43.326 C 260.174 45.061,258.774 45.418,257.308 43.888 L 256.252 42.785 257.143 42.647 C 258.392 42.454,259.270 42.706,259.508 43.326 M163.327 43.060 C 163.327 43.245,163.080 43.492,162.777 43.608 C 161.530 44.087,160.681 46.720,160.681 50.104 C 160.681 53.546,160.927 54.350,162.523 56.099 L 163.516 57.189 161.880 56.982 C 156.523 56.304,155.616 46.106,160.675 43.421 C 162.080 42.675,163.327 42.505,163.327 43.060 M167.628 43.562 C 167.927 44.039,167.912 44.338,167.573 44.677 C 167.074 45.176,165.242 44.119,164.917 43.145 C 164.671 42.405,167.142 42.786,167.628 43.562 M207.561 43.009 C 207.561 43.167,207.248 43.492,206.864 43.732 C 204.303 45.332,204.111 53.876,206.591 55.934 C 207.601 56.772,207.275 57.203,205.813 56.965 C 199.541 55.948,200.539 42.879,206.900 42.737 C 207.264 42.729,207.561 42.851,207.561 43.009 M211.863 43.562 C 212.161 44.039,212.146 44.338,211.807 44.677 C 211.308 45.176,209.476 44.119,209.152 43.145 C 208.905 42.405,211.377 42.786,211.863 43.562 M238.941 43.078 C 238.941 43.274,238.754 43.550,238.524 43.692 C 236.155 45.156,236.073 53.499,238.405 55.831 C 239.553 56.978,239.547 57.089,238.338 57.089 C 233.048 57.089,231.710 46.087,236.676 43.424 C 238.111 42.654,238.941 42.527,238.941 43.078 M243.743 43.463 C 247.524 45.768,247.254 54.615,243.345 56.470 C 241.124 57.524,240.751 57.304,241.964 55.656 C 244.030 52.848,243.706 45.771,241.424 43.877 C 239.895 42.608,241.788 42.271,243.743 43.463 M265.217 48.388 C 265.217 49.540,263.975 49.910,263.283 48.965 C 262.589 48.015,263.061 47.198,264.226 47.333 C 264.999 47.423,265.217 47.655,265.217 48.388 M190.776 49.317 C 190.649 49.825,190.752 50.696,191.006 51.253 C 191.425 52.172,191.372 52.342,190.441 53.085 C 189.623 53.737,189.414 54.220,189.414 55.456 C 189.414 57.060,188.839 57.658,187.713 57.226 C 186.955 56.935,186.949 56.961,188.505 53.297 C 189.253 51.535,190.014 49.712,190.197 49.244 C 190.643 48.104,191.068 48.157,190.776 49.317 M167.801 55.342 C 168.001 56.374,167.126 57.089,165.664 57.089 L 164.313 57.089 165.600 55.760 C 166.946 54.372,167.589 54.250,167.801 55.342 M212.035 55.342 C 212.235 56.374,211.361 57.089,209.898 57.089 L 208.547 57.089 209.835 55.760 C 211.180 54.372,211.823 54.250,212.035 55.342 M259.560 54.842 C 260.368 56.150,258.898 57.651,257.220 57.230 L 256.277 56.993 257.513 55.718 C 258.834 54.355,259.170 54.211,259.560 54.842 M265.349 55.741 C 265.510 56.584,264.450 57.511,263.668 57.211 C 263.117 57.000,262.938 55.525,263.406 55.057 C 263.911 54.552,265.210 55.009,265.349 55.741 M166.763 74.806 C 167.920 76.235,167.888 129.654,166.730 130.813 C 165.987 131.555,165.469 131.569,138.563 131.569 C 111.657 131.569,111.139 131.555,110.397 130.813 C 109.516 129.931,109.178 76.807,110.044 75.190 C 110.781 73.813,111.836 73.763,139.069 73.839 L 166.041 73.913 166.763 74.806 M226.120 74.806 C 227.278 76.235,227.246 129.654,226.087 130.813 C 225.345 131.555,224.827 131.569,197.921 131.569 C 171.014 131.569,170.496 131.555,169.754 130.813 C 168.873 129.931,168.535 76.807,169.401 75.190 C 170.138 73.813,171.194 73.763,198.427 73.839 L 225.398 73.913 226.120 74.806 M285.582 74.508 L 286.578 75.291 286.578 102.739 C 286.578 127.748,286.523 130.248,285.953 130.878 C 284.899 132.042,230.700 131.941,229.643 130.773 C 228.951 130.010,228.918 128.923,228.809 103.647 C 228.690 76.035,228.746 74.954,230.338 74.187 C 232.194 73.292,284.422 73.595,285.582 74.508 M166.558 135.143 L 167.486 136.071 167.486 163.191 L 167.486 190.310 166.664 191.185 L 165.842 192.060 138.497 192.060 C 111.657 192.060,111.139 192.047,110.397 191.304 C 109.655 190.562,109.641 190.044,109.641 163.165 L 109.641 135.783 110.637 134.999 C 111.624 134.223,111.890 134.216,138.631 134.216 L 165.630 134.216 166.558 135.143 M225.968 135.038 L 226.843 135.860 226.843 163.204 C 226.843 190.044,226.829 190.562,226.087 191.304 C 225.345 192.047,224.827 192.060,197.948 192.060 L 170.565 192.060 169.782 191.064 C 169.006 190.078,168.998 189.811,168.998 163.070 L 168.998 136.071 169.926 135.143 L 170.854 134.216 197.974 134.216 L 225.093 134.216 225.968 135.038 M285.822 134.972 C 286.565 135.714,286.578 136.232,286.578 163.138 C 286.578 190.044,286.565 190.562,285.822 191.304 C 284.664 192.463,231.244 192.495,229.815 191.338 L 228.922 190.615 228.922 163.138 L 228.922 135.661 229.815 134.938 C 231.244 133.781,284.664 133.813,285.822 134.972 M166.730 195.463 C 167.472 196.205,167.486 196.723,167.486 223.458 L 167.486 250.696 166.558 251.624 L 165.630 252.552 138.563 252.552 L 111.497 252.552 110.569 251.624 L 109.641 250.696 109.641 223.458 C 109.641 196.723,109.655 196.205,110.397 195.463 C 111.139 194.721,111.657 194.707,138.563 194.707 C 165.469 194.707,165.987 194.721,166.730 195.463 M226.087 195.463 C 226.829 196.205,226.843 196.723,226.843 223.602 L 226.843 250.985 225.847 251.768 C 224.860 252.545,224.593 252.552,197.852 252.552 L 170.854 252.552 169.926 251.624 L 168.998 250.696 168.998 223.458 C 168.998 196.723,169.012 196.205,169.754 195.463 C 170.496 194.721,171.014 194.707,197.921 194.707 C 224.827 194.707,225.345 194.721,226.087 195.463 M285.887 195.333 C 286.611 195.988,287.001 250.201,286.289 251.267 C 285.462 252.505,284.425 252.552,257.894 252.552 C 229.151 252.552,229.754 252.597,229.111 250.395 C 228.278 247.540,228.773 196.464,229.643 195.503 C 230.649 194.391,284.666 194.228,285.887 195.333 M219.660 274.858 C 220.644 275.842,220.831 289.268,219.879 290.570 C 219.039 291.720,182.841 291.919,181.435 290.782 C 179.933 289.567,179.843 276.165,181.327 274.681 C 182.352 273.657,218.626 273.824,219.660 274.858 M189.327 280.365 C 188.754 281.291,189.127 283.198,189.836 282.973 C 190.212 282.854,190.866 282.941,191.290 283.168 C 191.963 283.528,192.060 283.469,192.060 282.702 C 192.060 281.996,191.860 281.826,191.043 281.838 C 190.266 281.849,189.972 281.630,189.798 280.911 C 189.673 280.393,189.461 280.148,189.327 280.365 M210.827 280.718 C 210.947 281.030,211.179 281.285,211.342 281.285 C 211.506 281.285,211.737 281.030,211.857 280.718 C 212.004 280.335,211.838 280.151,211.342 280.151 C 210.846 280.151,210.680 280.335,210.827 280.718 M194.329 282.231 C 194.329 283.166,194.408 283.932,194.505 283.932 C 194.971 283.932,195.454 282.328,195.242 281.482 C 194.858 279.951,194.329 280.384,194.329 282.231 M200.154 280.965 C 199.999 281.216,200.309 281.709,200.888 282.130 C 201.439 282.532,201.890 283.102,201.890 283.396 C 201.890 283.691,202.060 283.932,202.268 283.932 C 202.906 283.932,202.689 282.953,201.890 282.231 C 201.474 281.854,201.134 281.317,201.134 281.038 C 201.134 280.415,200.521 280.370,200.154 280.965 M204.388 281.127 C 204.021 282.086,204.123 283.865,204.562 284.137 C 205.131 284.488,205.314 284.199,205.321 282.944 C 205.333 280.593,204.910 279.769,204.388 281.127 " stroke="none" fill="#44e3d3" fill-rule="evenodd"></path><path id="path2" d="" stroke="none" fill="#04202d" fill-rule="evenodd"></path><path id="path3" d="M-0.000 24.531 C -0.000 25.283,9.425 25.320,200.000 25.320 C 390.575 25.320,400.000 25.283,400.000 24.531 C 400.000 24.338,315.477 24.197,200.000 24.197 C 84.523 24.197,-0.000 24.338,-0.000 24.531 M135.134 42.835 C 134.401 43.246,134.416 45.369,135.152 45.369 C 135.459 45.369,135.980 44.958,136.309 44.455 C 138.383 41.290,139.156 42.932,139.244 50.694 L 139.319 57.278 140.832 57.278 L 142.344 57.278 142.355 50.759 C 142.367 42.874,142.706 42.020,144.954 44.199 C 145.666 44.889,146.433 45.339,146.659 45.200 C 147.210 44.859,147.183 43.215,146.621 42.867 C 146.006 42.488,135.806 42.459,135.134 42.835 M150.961 42.646 C 150.470 42.958,150.184 56.315,150.652 57.073 C 150.930 57.523,152.741 57.594,153.308 57.178 C 153.537 57.010,153.686 54.131,153.686 49.905 C 153.686 45.680,153.537 42.801,153.308 42.633 C 152.815 42.271,151.540 42.278,150.961 42.646 M175.709 42.751 C 174.976 43.180,174.813 44.801,175.462 45.203 C 175.691 45.344,176.476 44.843,177.207 44.091 C 178.084 43.188,178.339 42.722,177.957 42.722 C 177.638 42.722,177.151 42.642,176.874 42.543 C 176.597 42.445,176.073 42.538,175.709 42.751 M179.490 42.615 C 178.688 42.812,178.690 42.761,179.417 44.097 C 179.897 44.978,179.985 46.303,179.890 51.229 L 179.773 57.278 181.285 57.278 L 182.798 57.278 182.987 50.662 C 183.218 42.559,183.476 41.934,185.618 44.279 C 186.211 44.927,186.882 45.343,187.109 45.202 C 187.630 44.880,187.653 43.225,187.142 42.909 C 186.682 42.624,180.426 42.384,179.490 42.615 M192.729 42.817 C 192.199 43.227,190.926 46.720,190.926 47.764 C 190.926 47.967,191.260 47.830,191.668 47.461 C 193.165 46.106,194.965 49.038,194.078 51.388 C 193.742 52.276,193.814 52.538,194.575 53.216 C 195.231 53.800,195.463 54.408,195.463 55.541 C 195.463 57.191,196.180 57.685,198.166 57.404 C 199.328 57.239,199.278 56.482,197.767 51.418 C 197.116 49.234,196.330 46.565,196.020 45.486 C 195.198 42.628,194.111 41.746,192.729 42.817 M219.943 42.751 C 219.210 43.180,219.047 44.801,219.697 45.203 C 219.925 45.344,220.710 44.843,221.441 44.091 C 222.318 43.188,222.573 42.722,222.191 42.722 C 221.873 42.722,221.385 42.642,221.108 42.543 C 220.831 42.445,220.307 42.538,219.943 42.751 M223.724 42.615 C 222.942 42.807,222.887 43.152,223.535 43.800 C 223.876 44.142,224.008 46.078,224.008 50.776 L 224.008 57.278 225.520 57.278 L 227.032 57.278 227.221 50.662 C 227.453 42.559,227.711 41.934,229.853 44.279 C 230.445 44.927,231.116 45.343,231.344 45.202 C 231.864 44.880,231.887 43.225,231.376 42.909 C 230.916 42.624,224.661 42.384,223.724 42.615 M250.467 42.731 C 250.336 42.943,250.228 46.172,250.228 49.905 C 250.228 57.349,250.252 57.469,251.724 57.462 C 253.884 57.451,254.490 57.096,253.867 56.207 C 252.236 53.878,253.707 49.083,255.638 50.435 C 256.988 51.381,257.467 51.192,257.467 49.716 C 257.467 48.240,256.988 48.052,255.638 48.998 C 253.813 50.276,252.365 46.326,253.725 43.783 C 254.373 42.574,251.198 41.548,250.467 42.731 M257.143 42.647 L 256.252 42.785 257.308 43.888 C 258.480 45.111,259.166 45.279,259.494 44.423 C 259.993 43.123,258.986 42.362,257.143 42.647 M160.675 43.421 C 155.616 46.106,156.523 56.304,161.880 56.982 L 163.516 57.189 162.523 56.099 C 160.927 54.350,160.681 53.546,160.681 50.104 C 160.681 46.720,161.530 44.087,162.777 43.608 C 163.080 43.492,163.327 43.245,163.327 43.060 C 163.327 42.505,162.080 42.675,160.675 43.421 M164.917 43.145 C 165.242 44.119,167.074 45.176,167.573 44.677 C 168.291 43.959,167.429 42.932,165.989 42.790 C 165.129 42.705,164.806 42.811,164.917 43.145 M205.065 43.263 C 200.002 45.466,200.583 56.117,205.813 56.965 C 207.275 57.203,207.601 56.772,206.591 55.934 C 204.111 53.876,204.303 45.332,206.864 43.732 C 208.468 42.730,207.104 42.375,205.065 43.263 M209.152 43.145 C 209.476 44.119,211.308 45.176,211.807 44.677 C 212.525 43.959,211.663 42.932,210.224 42.790 C 209.363 42.705,209.040 42.811,209.152 43.145 M236.676 43.424 C 231.710 46.087,233.048 57.089,238.338 57.089 C 239.547 57.089,239.553 56.978,238.405 55.831 C 236.073 53.499,236.155 45.156,238.524 43.692 C 240.095 42.721,238.435 42.480,236.676 43.424 M240.832 43.054 C 240.832 43.236,241.098 43.607,241.424 43.877 C 243.706 45.771,244.030 52.848,241.964 55.656 C 240.751 57.304,241.124 57.524,243.345 56.470 C 247.254 54.615,247.524 45.768,243.743 43.463 C 242.495 42.702,240.832 42.468,240.832 43.054 M263.023 47.769 C 262.717 48.568,263.633 49.633,264.486 49.469 C 265.684 49.238,265.470 47.477,264.226 47.333 C 263.622 47.263,263.152 47.433,263.023 47.769 M190.197 49.244 C 190.014 49.712,189.253 51.535,188.505 53.297 C 186.949 56.961,186.955 56.935,187.713 57.226 C 188.839 57.658,189.414 57.060,189.414 55.456 C 189.414 54.220,189.623 53.737,190.441 53.085 C 191.372 52.342,191.425 52.172,191.006 51.253 C 190.752 50.696,190.649 49.825,190.776 49.317 C 191.068 48.157,190.643 48.104,190.197 49.244 M165.600 55.760 L 164.313 57.089 165.664 57.089 C 167.126 57.089,168.001 56.374,167.801 55.342 C 167.589 54.250,166.946 54.372,165.600 55.760 M209.835 55.760 L 208.547 57.089 209.898 57.089 C 211.361 57.089,212.235 56.374,212.035 55.342 C 211.823 54.250,211.180 54.372,209.835 55.760 M257.513 55.718 L 256.277 56.993 257.220 57.230 C 258.510 57.553,259.322 57.174,259.585 56.123 C 260.075 54.171,259.182 53.996,257.513 55.718 M263.406 55.057 C 262.938 55.525,263.117 57.000,263.668 57.211 C 264.450 57.511,265.510 56.584,265.349 55.741 C 265.210 55.009,263.911 54.552,263.406 55.057 M111.272 74.101 C 109.644 74.764,109.641 74.828,109.641 103.000 C 109.641 129.553,109.655 130.071,110.397 130.813 C 111.139 131.555,111.657 131.569,138.563 131.569 C 165.469 131.569,165.987 131.555,166.730 130.813 C 167.888 129.654,167.920 76.235,166.763 74.806 L 166.041 73.913 139.069 73.839 C 123.974 73.797,111.735 73.912,111.272 74.101 M170.630 74.101 C 169.002 74.764,168.998 74.828,168.998 103.000 C 168.998 129.553,169.012 130.071,169.754 130.813 C 170.496 131.555,171.014 131.569,197.921 131.569 C 224.827 131.569,225.345 131.555,226.087 130.813 C 227.246 129.654,227.278 76.235,226.120 74.806 L 225.398 73.913 198.427 73.839 C 183.331 73.797,171.092 73.912,170.630 74.101 M230.338 74.187 C 228.746 74.954,228.690 76.035,228.809 103.647 C 228.918 128.923,228.951 130.010,229.643 130.773 C 230.700 131.941,284.899 132.042,285.953 130.878 C 286.523 130.248,286.578 127.748,286.578 102.739 L 286.578 75.291 285.582 74.508 C 284.422 73.595,232.194 73.292,230.338 74.187 M166.022 75.483 C 166.979 76.636,166.771 129.571,165.807 130.276 C 164.710 131.078,112.417 131.078,111.320 130.276 C 110.356 129.571,110.148 76.636,111.105 75.483 C 111.902 74.523,165.225 74.523,166.022 75.483 M225.519 75.749 C 226.528 77.288,226.188 129.528,225.164 130.276 C 224.242 130.951,172.113 131.090,170.864 130.421 C 169.959 129.937,169.688 76.210,170.586 75.312 C 170.930 74.968,177.532 74.858,197.988 74.858 L 224.935 74.858 225.519 75.749 M285.228 75.452 C 286.160 76.384,286.129 129.091,285.197 130.121 C 284.299 131.113,231.450 131.207,230.462 130.219 C 229.557 129.314,229.557 76.357,230.462 75.452 C 231.367 74.547,284.323 74.547,285.228 75.452 M110.637 134.999 L 109.641 135.783 109.641 163.165 C 109.641 190.044,109.655 190.562,110.397 191.304 C 111.139 192.047,111.657 192.060,138.497 192.060 L 165.842 192.060 166.664 191.185 L 167.486 190.310 167.486 163.191 L 167.486 136.071 166.558 135.143 L 165.630 134.216 138.631 134.216 C 111.890 134.216,111.624 134.223,110.637 134.999 M169.926 135.143 L 168.998 136.071 168.998 163.070 C 168.998 189.811,169.006 190.078,169.782 191.064 L 170.565 192.060 197.948 192.060 C 224.827 192.060,225.345 192.047,226.087 191.304 C 226.829 190.562,226.843 190.044,226.843 163.204 L 226.843 135.860 225.968 135.038 L 225.093 134.216 197.974 134.216 L 170.854 134.216 169.926 135.143 M229.815 134.938 L 228.922 135.661 228.922 163.138 L 228.922 190.615 229.815 191.338 C 231.244 192.495,284.664 192.463,285.822 191.304 C 286.565 190.562,286.578 190.044,286.578 163.138 C 286.578 136.232,286.565 135.714,285.822 134.972 C 284.664 133.813,231.244 133.781,229.815 134.938 M165.866 135.836 C 166.753 136.724,166.931 189.742,166.049 190.624 C 165.325 191.347,111.801 191.348,111.078 190.624 C 110.502 190.048,110.138 138.913,110.694 136.765 C 111.151 135.004,110.444 135.045,139.212 135.106 C 163.606 135.157,165.232 135.202,165.866 135.836 M225.407 135.652 C 226.130 136.376,226.130 189.900,225.407 190.624 C 224.783 191.248,172.728 191.554,171.122 190.943 L 170.132 190.567 170.132 163.383 C 170.132 134.680,170.072 135.685,171.834 135.240 C 173.711 134.766,224.915 135.160,225.407 135.652 M285.286 135.895 C 286.088 136.992,286.088 189.285,285.286 190.381 C 284.537 191.405,232.298 191.745,230.758 190.736 L 229.868 190.153 229.868 163.176 C 229.868 134.693,229.807 135.685,231.569 135.240 C 234.231 134.568,284.766 135.184,285.286 135.895 M110.397 195.463 C 109.655 196.205,109.641 196.723,109.641 223.458 L 109.641 250.696 110.569 251.624 L 111.497 252.552 138.563 252.552 L 165.630 252.552 166.558 251.624 L 167.486 250.696 167.486 223.458 C 167.486 196.723,167.472 196.205,166.730 195.463 C 165.987 194.721,165.469 194.707,138.563 194.707 C 111.657 194.707,111.139 194.721,110.397 195.463 M169.754 195.463 C 169.012 196.205,168.998 196.723,168.998 223.458 L 168.998 250.696 169.926 251.624 L 170.854 252.552 197.852 252.552 C 224.593 252.552,224.860 252.545,225.847 251.768 L 226.843 250.985 226.843 223.602 C 226.843 196.723,226.829 196.205,226.087 195.463 C 225.345 194.721,224.827 194.707,197.921 194.707 C 171.014 194.707,170.496 194.721,169.754 195.463 M229.643 195.503 C 228.773 196.464,228.278 247.540,229.111 250.395 C 229.754 252.597,229.151 252.552,257.894 252.552 C 284.425 252.552,285.462 252.505,286.289 251.267 C 287.001 250.201,286.611 195.988,285.887 195.333 C 284.666 194.228,230.649 194.391,229.643 195.503 M165.807 196.000 C 166.771 196.705,166.979 249.639,166.022 250.792 C 165.225 251.753,111.902 251.753,111.105 250.793 C 110.148 249.640,110.356 196.705,111.320 196.000 C 112.417 195.198,164.710 195.198,165.807 196.000 M225.164 196.000 C 226.188 196.748,226.528 248.988,225.519 250.527 L 224.935 251.418 197.988 251.418 C 177.532 251.418,170.930 251.308,170.586 250.964 C 169.748 250.126,169.951 196.363,170.794 195.871 C 171.934 195.208,224.249 195.331,225.164 196.000 M284.982 196.052 L 285.822 196.640 285.822 223.298 C 285.822 240.950,285.690 250.202,285.431 250.686 C 284.817 251.834,230.873 251.834,230.259 250.686 C 230.000 250.202,229.868 240.950,229.868 223.298 L 229.868 196.640 230.708 196.052 C 231.449 195.533,234.656 195.463,257.845 195.463 C 281.034 195.463,284.241 195.533,284.982 196.052 M181.327 274.681 C 179.843 276.165,179.933 289.567,181.435 290.782 C 182.841 291.919,219.039 291.720,219.879 290.570 C 220.831 289.268,220.644 275.842,219.660 274.858 C 218.626 273.824,182.352 273.657,181.327 274.681 M219.093 282.798 L 219.093 290.170 200.592 290.268 C 186.042 290.345,182.026 290.265,181.788 289.890 C 181.422 289.314,181.368 275.847,181.730 275.485 C 181.871 275.344,190.335 275.273,200.539 275.327 L 219.093 275.425 219.093 282.798 M188.825 279.554 C 187.042 280.857,188.109 285.690,189.961 284.699 C 190.664 284.323,191.030 284.303,191.414 284.622 C 192.985 285.926,199.212 285.449,198.101 284.110 C 197.870 283.832,197.790 282.755,197.909 281.531 L 198.113 279.430 196.797 279.183 C 196.074 279.047,194.961 279.118,194.324 279.340 C 193.560 279.607,192.842 279.620,192.211 279.380 C 190.864 278.868,189.679 278.929,188.825 279.554 M200.000 279.509 C 198.896 280.065,198.575 283.975,199.565 284.798 C 200.902 285.907,208.780 285.364,208.068 284.211 C 207.626 283.496,207.655 280.922,208.110 280.545 C 208.960 279.839,210.208 281.164,210.208 282.773 C 210.208 284.629,211.165 285.581,211.950 284.507 C 212.240 284.111,212.476 283.304,212.476 282.712 C 212.476 282.121,212.748 281.222,213.081 280.714 C 213.972 279.355,212.436 278.669,209.976 279.327 C 208.726 279.661,208.076 279.670,207.500 279.362 C 207.061 279.127,206.117 279.050,205.344 279.185 C 203.260 279.550,202.529 279.571,201.701 279.290 C 201.285 279.149,200.520 279.248,200.000 279.509 M191.043 281.838 C 191.860 281.826,192.060 281.996,192.060 282.702 C 192.060 283.469,191.963 283.528,191.290 283.168 C 190.866 282.941,190.186 282.862,189.778 282.991 C 189.140 283.194,189.036 283.046,189.036 281.941 C 189.036 280.371,189.521 279.766,189.813 280.972 C 189.971 281.629,190.284 281.849,191.043 281.838 M211.857 280.718 C 211.737 281.030,211.506 281.285,211.342 281.285 C 211.179 281.285,210.947 281.030,210.827 280.718 C 210.680 280.335,210.846 280.151,211.342 280.151 C 211.838 280.151,212.004 280.335,211.857 280.718 M195.242 281.482 C 195.454 282.328,194.971 283.932,194.505 283.932 C 194.408 283.932,194.329 283.166,194.329 282.231 C 194.329 280.384,194.858 279.951,195.242 281.482 M201.134 281.038 C 201.134 281.317,201.474 281.854,201.890 282.231 C 202.689 282.953,202.906 283.932,202.268 283.932 C 202.060 283.932,201.890 283.691,201.890 283.396 C 201.890 283.102,201.439 282.532,200.888 282.130 C 200.309 281.709,199.999 281.216,200.154 280.965 C 200.521 280.370,201.134 280.415,201.134 281.038 M205.247 281.191 C 205.383 282.326,205.323 284.028,205.140 284.211 C 204.730 284.621,204.159 283.804,204.159 282.806 C 204.159 280.932,205.055 279.601,205.247 281.191 M0.216 311.866 C -0.249 312.618,9.258 312.655,200.000 312.655 C 390.742 312.655,400.249 312.618,399.784 311.866 C 399.509 311.421,0.491 311.421,0.216 311.866 " stroke="none" fill="#78f2ca" fill-rule="evenodd"></path></g></svg>