<?xml version="1.0" standalone="no"?>
<!DOCTYPE svg PUBLIC "-//W3C//DTD SVG 20010904//EN"
 "http://www.w3.org/TR/2001/REC-SVG-20010904/DTD/svg10.dtd">
<svg version="1.0" xmlns="http://www.w3.org/2000/svg"
 width="500.000000pt" height="533.000000pt" viewBox="0 0 500.000000 533.000000"
 preserveAspectRatio="xMidYMid meet">

<g transform="translate(0.000000,533.000000) scale(0.100000,-0.100000)"
fill="#000000" stroke="none">
<path d="M0 2665 l0 -2665 2500 0 2500 0 0 2665 0 2665 -2500 0 -2500 0 0
-2665z m2358 1941 c96 -53 148 -151 140 -260 -9 -103 -65 -183 -158 -225 -44
-20 -63 -21 -650 -21 -393 0 -618 -4 -643 -11 -26 -7 -44 -21 -57 -42 -19 -31
-20 -63 -20 -1413 l0 -1381 23 -33 c12 -18 35 -43 50 -54 l28 -21 1365 -3
c1531 -3 1410 -8 1462 71 l27 41 5 610 c5 576 6 613 24 646 34 64 65 96 117
124 137 75 304 23 373 -116 l26 -52 0 -630 c0 -712 1 -697 -75 -851 -94 -189
-264 -323 -475 -372 -70 -17 -170 -18 -1475 -18 -1094 0 -1412 3 -1455 13
-140 32 -258 98 -360 201 -119 121 -178 241 -200 411 -7 60 -10 553 -8 1650
l3 1565 23 47 c28 56 87 112 146 139 39 18 76 19 876 16 l835 -2 53 -29z
m1948 15 c60 -27 114 -80 140 -136 l24 -50 0 -606 c0 -511 -2 -613 -15 -649
-63 -178 -293 -235 -432 -107 -86 79 -88 87 -91 375 -2 138 -6 252 -10 252 -4
0 -448 -441 -987 -980 -711 -712 -992 -987 -1025 -1003 -61 -30 -177 -31 -235
-2 -134 66 -192 232 -127 365 16 33 281 304 1001 1024 539 539 978 983 975
988 -3 4 -110 8 -238 8 -268 0 -300 6 -367 73 -115 115 -110 296 12 400 78 67
60 65 729 66 568 1 608 -1 646 -18z"/>
</g>
</svg>
